<?xml version="1.0" encoding="UTF-8"?>
<!DOCTYPE svg PUBLIC "-//W3C//DTD SVG 1.1//EN" "http://www.w3.org/Graphics/SVG/1.1/DTD/svg11.dtd">
<svg version="1.2" width="19.33mm" height="25.93mm" viewBox="991 973 1933 2593" preserveAspectRatio="xMidYMid" fill-rule="evenodd" stroke-width="28.222" stroke-linejoin="round" xmlns="http://www.w3.org/2000/svg" xmlns:ooo="http://xml.openoffice.org/svg/export" xmlns:xlink="http://www.w3.org/1999/xlink" xmlns:presentation="http://sun.com/xmlns/staroffice/presentation" xmlns:smil="http://www.w3.org/2001/SMIL20/" xmlns:anim="urn:oasis:names:tc:opendocument:xmlns:animation:1.0" xml:space="preserve">
 <defs class="EmbeddedBulletChars">
  <g id="bullet-char-template-57356" transform="scale(0.00048828125,-0.00048828125)">
   <path d="M 580,1141 L 1163,571 580,0 -4,571 580,1141 Z"/>
  </g>
  <g id="bullet-char-template-57354" transform="scale(0.00048828125,-0.00048828125)">
   <path d="M 8,1128 L 1137,1128 1137,0 8,0 8,1128 Z"/>
  </g>
  <g id="bullet-char-template-10146" transform="scale(0.00048828125,-0.00048828125)">
   <path d="M 174,0 L 602,739 174,1481 1456,739 174,0 Z M 1358,739 L 309,1346 659,739 1358,739 Z"/>
  </g>
  <g id="bullet-char-template-10132" transform="scale(0.00048828125,-0.00048828125)">
   <path d="M 2015,739 L 1276,0 717,0 1260,543 174,543 174,936 1260,936 717,1481 1274,1481 2015,739 Z"/>
  </g>
  <g id="bullet-char-template-10007" transform="scale(0.00048828125,-0.00048828125)">
   <path d="M 0,-2 C -7,14 -16,27 -25,37 L 356,567 C 262,823 215,952 215,954 215,979 228,992 255,992 264,992 276,990 289,987 310,991 331,999 354,1012 L 381,999 492,748 772,1049 836,1024 860,1049 C 881,1039 901,1025 922,1006 886,937 835,863 770,784 769,783 710,716 594,584 L 774,223 C 774,196 753,168 711,139 L 727,119 C 717,90 699,76 672,76 641,76 570,178 457,381 L 164,-76 C 142,-110 111,-127 72,-127 30,-127 9,-110 8,-76 1,-67 -2,-52 -2,-32 -2,-23 -1,-13 0,-2 Z"/>
  </g>
  <g id="bullet-char-template-10004" transform="scale(0.00048828125,-0.00048828125)">
   <path d="M 285,-33 C 182,-33 111,30 74,156 52,228 41,333 41,471 41,549 55,616 82,672 116,743 169,778 240,778 293,778 328,747 346,684 L 369,508 C 377,444 397,411 428,410 L 1163,1116 C 1174,1127 1196,1133 1229,1133 1271,1133 1292,1118 1292,1087 L 1292,965 C 1292,929 1282,901 1262,881 L 442,47 C 390,-6 338,-33 285,-33 Z"/>
  </g>
  <g id="bullet-char-template-9679" transform="scale(0.00048828125,-0.00048828125)">
   <path d="M 813,0 C 632,0 489,54 383,161 276,268 223,411 223,592 223,773 276,916 383,1023 489,1130 632,1184 813,1184 992,1184 1136,1130 1245,1023 1353,916 1407,772 1407,592 1407,412 1353,268 1245,161 1136,54 992,0 813,0 Z"/>
  </g>
  <g id="bullet-char-template-8226" transform="scale(0.00048828125,-0.00048828125)">
   <path d="M 346,457 C 273,457 209,483 155,535 101,586 74,649 74,723 74,796 101,859 155,911 209,963 273,989 346,989 419,989 480,963 531,910 582,859 608,796 608,723 608,648 583,586 532,535 482,483 420,457 346,457 Z"/>
  </g>
  <g id="bullet-char-template-8211" transform="scale(0.00048828125,-0.00048828125)">
   <path d="M -4,459 L 1135,459 1135,606 -4,606 -4,459 Z"/>
  </g>
  <g id="bullet-char-template-61548" transform="scale(0.00048828125,-0.00048828125)">
   <path d="M 173,740 C 173,903 231,1043 346,1159 462,1274 601,1332 765,1332 928,1332 1067,1274 1183,1159 1299,1043 1357,903 1357,740 1357,577 1299,437 1183,322 1067,206 928,148 765,148 601,148 462,206 346,322 231,437 173,577 173,740 Z"/>
  </g>
 </defs>
 <g class="Page">
  <g class="com.sun.star.drawing.CustomShape">
   <g id="id3">
    <rect class="BoundingBox" stroke="none" fill="none" x="991" y="973" width="1933" height="2593"/>
    <path fill="rgb(255,255,255)" stroke="none" d="M 1848,3504 L 1760,2916 1353,2916 1277,3504 1022,3504 1394,1025 1682,1025 2102,3504 1848,3504 Z M 1699,2476 L 1612,1902 1591,1754 1564,1569 1557,1524 1552,1483 1543,1407 1523,1578 1500,1772 1490,1852 1486,1879 1484,1893 1483,1902 1409,2476 1699,2476 Z M 2896,2818 L 2895,2898 2893,2937 2892,2975 2888,3012 2883,3046 2878,3080 2872,3114 2866,3146 2858,3178 2850,3208 2841,3235 2830,3265 2818,3292 2807,3317 2794,3342 2781,3365 2767,3388 2752,3408 2735,3429 2703,3461 2666,3490 2627,3511 2583,3527 2539,3536 2491,3538 2447,3536 2405,3529 2364,3518 2323,3502 2284,3479 2246,3454 2209,3424 2174,3390 2169,2902 2209,2939 2250,2975 2293,3010 2335,3041 2357,3057 2378,3069 2400,3080 2421,3089 2442,3096 2464,3101 2484,3105 2506,3105 2527,3105 2546,3101 2564,3096 2580,3087 2595,3078 2602,3071 2608,3064 2614,3057 2619,3051 2624,3041 2629,3032 2637,3012 2645,2991 2648,2982 2651,2971 2653,2959 2656,2948 2658,2934 2660,2923 2661,2909 2663,2898 2664,2884 2664,2870 2664,2843 2664,2820 2662,2798 2660,2777 2656,2757 2654,2747 2652,2736 2650,2727 2647,2718 2645,2709 2641,2700 2634,2684 2627,2668 2618,2652 2609,2636 2599,2620 2590,2604 2578,2590 2567,2574 2555,2561 2443,2438 2402,2392 2380,2367 2357,2340 2334,2310 2312,2276 2290,2239 2269,2198 2259,2175 2249,2153 2240,2130 2230,2105 2222,2077 2214,2052 2207,2023 2199,1993 2193,1961 2187,1929 2182,1895 2178,1859 2175,1822 2172,1783 2170,1742 2170,1701 2171,1622 2174,1544 2178,1508 2182,1474 2187,1439 2192,1405 2199,1373 2206,1344 2214,1314 2223,1287 2233,1259 2243,1232 2255,1207 2267,1184 2280,1161 2293,1141 2306,1120 2322,1104 2352,1072 2385,1045 2421,1025 2459,1011 2499,1002 2541,1000 2585,1002 2606,1006 2627,1011 2648,1018 2668,1025 2688,1034 2708,1045 2747,1070 2789,1100 2831,1134 2875,1173 2803,1581 2765,1549 2729,1519 2696,1494 2663,1474 2648,1464 2632,1458 2617,1451 2601,1444 2586,1439 2570,1437 2554,1435 2538,1435 2522,1435 2506,1439 2492,1444 2479,1453 2466,1462 2461,1469 2455,1476 2450,1483 2445,1489 2441,1496 2436,1505 2428,1524 2424,1533 2421,1542 2417,1553 2415,1562 2412,1574 2410,1585 2408,1597 2406,1608 2404,1619 2403,1633 2402,1644 2402,1658 2401,1685 2402,1701 2403,1717 2404,1733 2405,1747 2407,1761 2410,1777 2413,1790 2416,1802 2419,1815 2423,1827 2428,1840 2432,1852 2437,1863 2444,1872 2450,1884 2456,1893 2486,1934 2523,1977 2617,2080 2658,2125 2697,2171 2733,2219 2749,2242 2765,2267 2780,2292 2793,2317 2807,2344 2820,2371 2830,2401 2841,2431 2852,2463 2860,2494 2868,2529 2875,2565 2881,2602 2886,2640 2890,2684 2893,2727 2895,2770 2896,2818 Z"/>
    <path fill="none" stroke="rgb(128,128,128)" stroke-width="53" stroke-linejoin="miter" d="M 1848,3504 L 1760,2916 1353,2916 1277,3504 1022,3504 1394,1025 1682,1025 2102,3504 1848,3504 Z"/>
    <path fill="none" stroke="rgb(128,128,128)" stroke-width="53" stroke-linejoin="miter" d="M 1699,2476 L 1612,1902 1591,1754 1564,1569 1557,1524 1552,1483 1543,1407 1523,1578 1500,1772 1490,1852 1486,1879 1484,1893 1483,1902 1409,2476 1699,2476 Z"/>
    <path fill="none" stroke="rgb(128,128,128)" stroke-width="53" stroke-linejoin="miter" d="M 2896,2818 L 2895,2898 2893,2937 2892,2975 2888,3012 2883,3046 2878,3080 2872,3114 2866,3146 2858,3178 2850,3208 2841,3235 2830,3265 2818,3292 2807,3317 2794,3342 2781,3365 2767,3388 2752,3408 2735,3429 2703,3461 2666,3490 2627,3511 2583,3527 2539,3536 2491,3538 2447,3536 2405,3529 2364,3518 2323,3502 2284,3479 2246,3454 2209,3424 2174,3390 2169,2902 2209,2939 2250,2975 2293,3010 2335,3041 2357,3057 2378,3069 2400,3080 2421,3089 2442,3096 2464,3101 2484,3105 2506,3105 2527,3105 2546,3101 2564,3096 2580,3087 2595,3078 2602,3071 2608,3064 2614,3057 2619,3051 2624,3041 2629,3032 2637,3012 2645,2991 2648,2982 2651,2971 2653,2959 2656,2948 2658,2934 2660,2923 2661,2909 2663,2898 2664,2884 2664,2870 2664,2843 2664,2820 2662,2798 2660,2777 2656,2757 2654,2747 2652,2736 2650,2727 2647,2718 2645,2709 2641,2700 2634,2684 2627,2668 2618,2652 2609,2636 2599,2620 2590,2604 2578,2590 2567,2574 2555,2561 2443,2438 2402,2392 2380,2367 2357,2340 2334,2310 2312,2276 2290,2239 2269,2198 2259,2175 2249,2153 2240,2130 2230,2105 2222,2077 2214,2052 2207,2023 2199,1993 2193,1961 2187,1929 2182,1895 2178,1859 2175,1822 2172,1783 2170,1742 2170,1701 2171,1622 2174,1544 2178,1508 2182,1474 2187,1439 2192,1405 2199,1373 2206,1344 2214,1314 2223,1287 2233,1259 2243,1232 2255,1207 2267,1184 2280,1161 2293,1141 2306,1120 2322,1104 2352,1072 2385,1045 2421,1025 2459,1011 2499,1002 2541,1000 2585,1002 2606,1006 2627,1011 2648,1018 2668,1025 2688,1034 2708,1045 2747,1070 2789,1100 2831,1134 2875,1173 2803,1581 2765,1549 2729,1519 2696,1494 2663,1474 2648,1464 2632,1458 2617,1451 2601,1444 2586,1439 2570,1437 2554,1435 2538,1435 2522,1435 2506,1439 2492,1444 2479,1453 2466,1462 2461,1469 2455,1476 2450,1483 2445,1489 2441,1496 2436,1505 2428,1524 2424,1533 2421,1542 2417,1553 2415,1562 2412,1574 2410,1585 2408,1597 2406,1608 2404,1619 2403,1633 2402,1644 2402,1658 2401,1685 2402,1701 2403,1717 2404,1733 2405,1747 2407,1761 2410,1777 2413,1790 2416,1802 2419,1815 2423,1827 2428,1840 2432,1852 2437,1863 2444,1872 2450,1884 2456,1893 2486,1934 2523,1977 2617,2080 2658,2125 2697,2171 2733,2219 2749,2242 2765,2267 2780,2292 2793,2317 2807,2344 2820,2371 2830,2401 2841,2431 2852,2463 2860,2494 2868,2529 2875,2565 2881,2602 2886,2640 2890,2684 2893,2727 2895,2770 2896,2818 Z"/>
   </g>
  </g>
 </g>
</svg>