<?xml version="1.0" encoding="UTF-8"?> <svg xmlns="http://www.w3.org/2000/svg" width="378" height="114" viewBox="0 0 378 114" fill="none"> <g clip-path="url(#clip0_203_411)"> <path d="M0.000610352 94.774H2.16023C4.61888 94.774 5.8482 95.76 5.8482 97.7647C5.91137 98.3496 5.78848 98.9394 5.49665 99.4519C5.20482 99.9645 4.75859 100.374 4.22018 100.624C3.67434 100.809 3.10264 100.909 2.52571 100.92L6.01432 106.704H4.81823L1.32961 100.92H1.06381V106.704H0.000610352V94.774ZM1.06381 95.8257V99.8352H2.16023C2.86192 99.898 3.56447 99.7242 4.15373 99.3422C4.38141 99.1504 4.55803 98.9063 4.6681 98.6313C4.77816 98.3562 4.8183 98.0587 4.785 97.7647C4.79647 97.4982 4.75223 97.2322 4.65504 96.9834C4.55785 96.7346 4.40981 96.5083 4.22018 96.3187C3.77675 95.947 3.20557 95.7587 2.62538 95.7928L1.06381 95.8257Z" fill="#929292"></path> <path d="M30.5673 94.4111C31.4063 94.3837 32.2418 94.5304 33.02 94.8417C33.7982 95.153 34.5019 95.622 35.0859 96.2186C36.2089 97.4552 36.8302 99.0588 36.8302 100.721C36.8302 102.383 36.2089 103.987 35.0859 105.223C34.5223 105.819 33.8364 106.289 33.0742 106.6C32.312 106.912 31.4912 107.059 30.6669 107.031C29.8332 107.056 29.0034 106.908 28.231 106.596C27.4585 106.285 26.7604 105.817 26.1816 105.223C25.5966 104.622 25.1394 103.911 24.8369 103.132C24.5345 102.353 24.3929 101.522 24.4206 100.688C24.4139 99.8786 24.5689 99.0757 24.8768 98.3256C25.1847 97.5755 25.6394 96.893 26.2148 96.3172C26.7606 95.7104 27.4314 95.2263 28.1822 94.8975C28.933 94.5687 29.7462 94.4029 30.5673 94.4111ZM30.5673 95.5942C29.9055 95.577 29.2475 95.6967 28.6353 95.9457C28.0231 96.1947 27.4702 96.5675 27.0122 97.0402C26.5375 97.5147 26.166 98.0801 25.9203 98.7018C25.6746 99.3234 25.56 99.9882 25.5835 100.655C25.5573 101.342 25.6701 102.028 25.9155 102.671C26.1608 103.315 26.5337 103.903 27.0122 104.402C27.4803 104.88 28.0444 105.255 28.6682 105.504C29.2919 105.753 29.9615 105.87 30.6337 105.848C31.2999 105.862 31.9619 105.741 32.579 105.492C33.1961 105.243 33.7553 104.872 34.222 104.402C35.1442 103.393 35.6548 102.081 35.6548 100.721C35.6548 99.3609 35.1442 98.0491 34.222 97.0402C33.7514 96.5657 33.1869 96.1924 32.5637 95.9436C31.9406 95.6947 31.2722 95.5758 30.6005 95.5942H30.5673Z" fill="#929292"></path> <path d="M55.1859 94.7744H57.412C58.3632 94.7281 59.3016 95.0065 60.07 95.5631C60.387 95.8282 60.6387 96.1614 60.8056 96.5373C60.9726 96.9132 61.0506 97.3219 61.0335 97.7322C61.0591 98.256 60.9277 98.7756 60.6558 99.2258C60.3839 99.676 59.9836 100.037 59.5052 100.263C60.063 100.421 60.5828 100.69 61.0335 101.051C61.3725 101.323 61.6423 101.67 61.8211 102.064C62 102.458 62.083 102.888 62.0635 103.319C62.0739 103.778 61.9774 104.233 61.7815 104.649C61.5857 105.065 61.2956 105.431 60.9338 105.718C60.1374 106.385 59.1194 106.736 58.0765 106.704H55.1859V94.7744ZM56.2491 95.826V99.8026H57.3455C58.0272 99.8301 58.6972 99.6208 59.2394 99.2111C59.4811 99.047 59.6777 98.8258 59.8111 98.5675C59.9446 98.3093 60.0107 98.0221 60.0035 97.7322C60.0055 97.4706 59.9501 97.2118 59.8411 96.9734C59.7322 96.7351 59.5722 96.5231 59.3723 96.3519C58.9036 95.9789 58.3115 95.7915 57.711 95.826H56.2491ZM56.2491 100.887V105.62H57.8439C58.6677 105.672 59.4859 105.453 60.1697 104.995C60.4409 104.786 60.6579 104.516 60.8023 104.207C60.9468 103.899 61.0147 103.56 61.0003 103.221C61.0074 102.88 60.9254 102.544 60.7624 102.245C60.5994 101.946 60.3609 101.693 60.07 101.512C59.3227 101.058 58.4535 100.84 57.5781 100.887H56.2491Z" fill="#929292"></path> <path d="M86.816 94.4111C87.655 94.3837 88.4905 94.5304 89.2688 94.8417C90.047 95.153 90.7507 95.622 91.3346 96.2186C92.4577 97.4552 93.079 99.0588 93.079 100.721C93.079 102.383 92.4577 103.987 91.3346 105.223C90.771 105.819 90.0851 106.289 89.323 106.6C88.5608 106.912 87.74 107.059 86.9157 107.031C86.082 107.056 85.2522 106.908 84.4798 106.596C83.7073 106.285 83.0092 105.817 82.4303 105.223C81.8454 104.622 81.3881 103.911 81.0857 103.132C80.7832 102.353 80.6417 101.522 80.6694 100.688C80.6627 99.8786 80.8177 99.0757 81.1256 98.3256C81.4335 97.5755 81.8882 96.893 82.4636 96.3172C83.0093 95.7104 83.6802 95.2263 84.431 94.8975C85.1817 94.5687 85.995 94.4029 86.816 94.4111ZM86.816 95.5942C86.1543 95.577 85.4963 95.6967 84.8841 95.9457C84.2719 96.1947 83.719 96.5675 83.261 97.0402C82.7863 97.5147 82.4147 98.0801 82.1691 98.7018C81.9234 99.3234 81.8088 99.9882 81.8323 100.655C81.806 101.342 81.9189 102.028 82.1642 102.671C82.4096 103.315 82.7825 103.903 83.261 104.402C83.7291 104.88 84.2932 105.255 84.917 105.504C85.5407 105.753 86.2102 105.87 86.8825 105.848C87.5487 105.862 88.2107 105.741 88.8278 105.492C89.4449 105.243 90.004 104.872 90.4708 104.402C91.393 103.393 91.9036 102.081 91.9036 100.721C91.9036 99.3609 91.393 98.0491 90.4708 97.0402C90.0002 96.5657 89.4357 96.1924 88.8125 95.9436C88.1894 95.6947 87.521 95.5758 86.8493 95.5942H86.816Z" fill="#929292"></path> <path d="M110.97 94.774H118.379V95.8257H115.056V106.704H113.993V95.8257H110.671L110.97 94.774Z" fill="#929292"></path> <path d="M136.223 94.774H137.319V106.704H136.223V94.774Z" fill="#929292"></path> <path d="M166.392 95.8567V97.4671C166.109 97.145 165.797 96.8481 165.462 96.5797C165.179 96.3877 164.879 96.2226 164.565 96.0868C163.881 95.7615 163.131 95.593 162.372 95.5938C161.673 95.5783 160.978 95.7012 160.327 95.9552C159.677 96.2091 159.084 96.5891 158.584 97.0727C158.088 97.5362 157.696 98.0974 157.433 98.7201C157.17 99.3427 157.041 100.013 157.056 100.688C157.036 101.371 157.166 102.05 157.435 102.68C157.705 103.309 158.108 103.874 158.617 104.336C159.111 104.83 159.702 105.219 160.353 105.479C161.005 105.739 161.703 105.864 162.405 105.847C163.064 105.845 163.718 105.722 164.332 105.486C164.682 105.344 165.015 105.168 165.329 104.96C165.717 104.669 166.083 104.35 166.425 104.007V105.585C165.824 106.057 165.151 106.434 164.432 106.702C163.777 106.912 163.094 107.023 162.405 107.031C160.623 107.007 158.92 106.3 157.654 105.059C157.076 104.48 156.622 103.791 156.32 103.034C156.017 102.278 155.872 101.468 155.893 100.655C155.892 99.8422 156.06 99.038 156.386 98.2919C156.711 97.5457 157.188 96.8736 157.787 96.3168C158.394 95.7323 159.111 95.2719 159.898 94.9617C160.684 94.6516 161.525 94.4978 162.372 94.5093C163.109 94.5156 163.84 94.649 164.531 94.9036C165.202 95.1148 165.831 95.4371 166.392 95.8567Z" fill="#929292"></path> <path d="M212.374 96.1218L211.543 96.9434C211.201 96.5344 210.798 96.1798 210.347 95.8917C210.02 95.6864 209.638 95.5833 209.251 95.596C208.793 95.5907 208.347 95.7415 207.988 96.0232C207.831 96.1572 207.704 96.3236 207.618 96.511C207.532 96.6983 207.488 96.902 207.49 97.1077C207.512 97.6923 207.762 98.2458 208.188 98.6523C208.699 99.0479 209.244 99.3997 209.816 99.704L211.045 100.427C211.379 100.623 211.681 100.866 211.942 101.15C212.66 101.793 213.09 102.691 213.138 103.648C213.137 104.098 213.042 104.544 212.859 104.957C212.676 105.369 212.409 105.74 212.075 106.047C211.372 106.694 210.444 107.047 209.484 107.033C208.639 107.049 207.815 106.77 207.158 106.244C206.892 106.05 206.647 105.83 206.427 105.587C206.171 105.286 205.938 104.968 205.729 104.634L206.759 104.075C207.103 104.599 207.529 105.065 208.022 105.455C208.45 105.718 208.946 105.855 209.45 105.85C210.097 105.876 210.729 105.652 211.211 105.225C211.445 105.033 211.632 104.792 211.758 104.519C211.885 104.246 211.948 103.948 211.942 103.648C211.946 103.367 211.892 103.088 211.784 102.828C211.675 102.568 211.514 102.332 211.311 102.136C210.675 101.548 209.959 101.05 209.185 100.657C208.528 100.326 207.914 99.9181 207.357 99.4411C206.711 98.8148 206.331 97.9687 206.294 97.0749C206.292 96.7146 206.369 96.3582 206.518 96.0295C206.667 95.7008 206.885 95.4073 207.158 95.1687C207.764 94.6715 208.53 94.4036 209.317 94.4128C210.04 94.4223 210.74 94.6646 211.311 95.103C211.708 95.3967 212.065 95.739 212.374 96.1218Z" fill="#929292"></path> <path d="M229.985 94.774H231.181L234.503 99.9995L237.826 94.774H239.221L235.234 101.084V106.704H234.138V101.018L229.985 94.774Z" fill="#929292"></path> <path d="M263.274 96.1229L262.444 96.9445C262.104 96.5455 261.713 96.192 261.281 95.8928C260.94 95.6918 260.548 95.5893 260.151 95.597C259.703 95.5911 259.268 95.7425 258.922 96.0243C258.764 96.1583 258.638 96.3247 258.552 96.512C258.466 96.6994 258.422 96.903 258.424 97.1088C258.434 97.6895 258.672 98.2435 259.088 98.6534C259.605 99.0412 260.149 99.3926 260.716 99.7051L261.979 100.428C262.3 100.641 262.6 100.883 262.876 101.151C263.572 101.806 263.988 102.7 264.039 103.649C264.037 104.099 263.942 104.545 263.759 104.958C263.576 105.37 263.309 105.741 262.975 106.048C262.285 106.693 261.367 107.047 260.417 107.034C259.562 107.049 258.728 106.771 258.058 106.245C257.81 106.043 257.577 105.823 257.36 105.588C257.092 105.289 256.848 104.971 256.63 104.635L257.693 104.076C258.016 104.605 258.432 105.072 258.922 105.456C259.351 105.719 259.846 105.856 260.351 105.851C261.007 105.875 261.648 105.652 262.145 105.226C262.369 105.028 262.547 104.785 262.667 104.513C262.788 104.241 262.847 103.946 262.843 103.649C262.845 103.088 262.631 102.547 262.245 102.137C261.595 101.55 260.869 101.052 260.085 100.658C259.428 100.327 258.815 99.9192 258.258 99.4422C257.618 98.8145 257.249 97.9666 257.228 97.0759C257.217 96.7143 257.289 96.3551 257.439 96.025C257.588 95.6949 257.811 95.4025 258.091 95.1698C258.678 94.6613 259.438 94.3913 260.218 94.4139C260.948 94.4364 261.655 94.677 262.245 95.1041C262.629 95.4001 262.975 95.7424 263.274 96.1229Z" fill="#929292"></path> <path d="M280.883 94.774H288.292V95.8257H284.969V106.704H283.906V95.8257H280.75L280.883 94.774Z" fill="#929292"></path> <path d="M306.334 94.774H312.115V95.8257H307.397V99.6051H312.115V100.657H307.397V105.554H312.314V106.638H306.334V94.774Z" fill="#929292"></path> <path d="M332.512 94.313L337.396 104.632L342.214 94.3787L344.374 106.703H343.344L341.782 97.7309L337.496 107.097L333.11 97.7309L331.582 106.703H330.552L332.512 94.313Z" fill="#929292"></path> <path d="M368.796 96.1216L367.966 96.9432C367.624 96.5342 367.22 96.1795 366.77 95.8915C366.428 95.6905 366.037 95.588 365.64 95.5957C365.192 95.5898 364.757 95.7412 364.411 96.023C364.253 96.1569 364.126 96.3234 364.04 96.5107C363.954 96.6981 363.911 96.9017 363.912 97.1075C363.935 97.6921 364.185 98.2455 364.61 98.6521C365.122 99.0476 365.666 99.3995 366.238 99.7038L367.467 100.427C367.789 100.64 368.089 100.882 368.365 101.15C369.082 101.793 369.512 102.691 369.561 103.648C369.555 104.101 369.455 104.548 369.266 104.96C369.077 105.373 368.804 105.743 368.464 106.047C367.777 106.698 366.857 107.052 365.906 107.033C365.051 107.048 364.217 106.769 363.547 106.244C363.298 106.042 363.065 105.822 362.849 105.587C362.581 105.288 362.337 104.969 362.118 104.633L363.181 104.075C363.515 104.606 363.943 105.073 364.444 105.455C364.87 105.723 365.367 105.86 365.873 105.849C366.519 105.875 367.151 105.651 367.634 105.225C367.857 105.027 368.036 104.784 368.156 104.511C368.276 104.239 368.336 103.945 368.331 103.648C368.334 103.087 368.12 102.546 367.733 102.136C367.091 101.541 366.363 101.042 365.574 100.657C364.922 100.318 364.309 99.9104 363.746 99.4409C363.107 98.8132 362.738 97.9653 362.716 97.0746C362.715 96.7144 362.791 96.358 362.94 96.0293C363.089 95.7006 363.307 95.4071 363.58 95.1685C364.178 94.6785 364.93 94.4111 365.706 94.4126C366.441 94.4149 367.153 94.6575 367.733 95.1028C368.122 95.4052 368.478 95.7466 368.796 96.1216Z" fill="#929292"></path> <path d="M59.2402 44.6703C58.9953 44.1887 58.6205 43.7834 58.1573 43.4992C57.6941 43.215 57.1605 43.063 56.6154 43.0599H17.1775C16.6324 43.063 16.0988 43.215 15.6356 43.4992C15.1724 43.7834 14.7977 44.1887 14.5527 44.6703L0.299198 72.5722C-0.0262044 73.2585 -0.0695089 74.043 0.178412 74.7603C0.426333 75.4776 0.946112 76.0717 1.62819 76.4173C2.32011 76.7605 3.12137 76.8183 3.8563 76.5781C4.59123 76.3378 5.19986 75.8191 5.54874 75.1356L18.8387 48.8441H54.8213L68.1113 75.1356C68.3547 75.616 68.7301 76.0187 69.1943 76.2977C69.6586 76.5767 70.1929 76.7207 70.736 76.7131C71.2382 76.7166 71.7328 76.5921 72.1722 76.3516C72.6115 76.1111 72.9809 75.7627 73.2446 75.3401C73.5084 74.9174 73.6576 74.4346 73.6779 73.9383C73.6983 73.442 73.5891 72.9489 73.3608 72.5065L59.2402 44.6703ZM22.3273 34.811C22.6739 34.9786 23.0506 35.0767 23.4358 35.0997C23.8209 35.1226 24.2068 35.07 24.5712 34.9447C24.9357 34.8194 25.2715 34.6241 25.5592 34.3699C25.847 34.1157 26.081 33.8076 26.2479 33.4635L36.9463 11.8387L47.6115 33.4635C47.8512 33.9587 48.2284 34.3762 48.6991 34.6672C49.1697 34.9582 49.7144 35.1106 50.2695 35.1067C50.7078 35.1064 51.1401 35.0051 51.532 34.811C51.8799 34.6459 52.1913 34.4144 52.4483 34.1298C52.7053 33.8451 52.9028 33.513 53.0294 33.1525C53.1561 32.792 53.2093 32.4103 53.1861 32.0294C53.1629 31.6484 53.0637 31.2758 52.8943 30.933L39.6043 4.11558C39.3655 3.62911 38.9922 3.21959 38.5276 2.93456C38.063 2.64952 37.5262 2.50065 36.9795 2.50522C36.4288 2.5022 35.8882 2.65134 35.4186 2.93586C34.949 3.22038 34.569 3.62896 34.3215 4.11558L21.0316 31.0315C20.7153 31.7056 20.6735 32.4741 20.9148 33.1778C21.1561 33.8814 21.6619 34.4663 22.3273 34.811ZM220.514 44.6703C220.272 44.1863 219.898 43.7789 219.434 43.4943C218.97 43.2097 218.435 43.0592 217.889 43.0599H178.451C177.91 43.0616 177.38 43.2133 176.922 43.498C176.464 43.7827 176.096 44.1889 175.86 44.6703L161.606 72.5722C161.432 72.911 161.326 73.2805 161.296 73.6595C161.266 74.0386 161.312 74.4198 161.43 74.7815C161.549 75.1431 161.739 75.478 161.988 75.7672C162.238 76.0563 162.543 76.294 162.885 76.4666C163.228 76.6393 163.601 76.7435 163.985 76.7733C164.368 76.8032 164.753 76.758 165.119 76.6406C165.484 76.5231 165.823 76.3355 166.115 76.0886C166.408 75.8416 166.648 75.5401 166.823 75.2013L180.112 48.9098H215.962L229.252 75.2013C229.499 75.6792 229.875 76.0799 230.338 76.3585C230.802 76.637 231.335 76.7826 231.877 76.7788C232.336 76.7721 232.788 76.6714 233.206 76.4831C233.899 76.1315 234.424 75.5235 234.667 74.7912C234.909 74.0589 234.85 73.2615 234.502 72.5722L220.514 44.6703ZM183.634 34.811C184.336 35.1406 185.14 35.184 185.874 34.9319C186.607 34.6798 187.211 34.1524 187.555 33.4635L198.22 11.8387L208.885 33.4635C209.128 33.9563 209.506 34.3716 209.976 34.6621C210.446 34.9527 210.989 35.1067 211.543 35.1067C211.992 35.1034 212.434 35.0024 212.839 34.811C213.184 34.643 213.492 34.4093 213.746 34.1234C213.999 33.8375 214.193 33.5049 214.317 33.1447C214.44 32.7844 214.491 32.4037 214.465 32.0241C214.44 31.6446 214.339 31.2738 214.168 30.933L200.911 4.11558C200.664 3.62896 200.284 3.22038 199.814 2.93586C199.345 2.65134 198.804 2.5022 198.253 2.50522C197.707 2.50065 197.17 2.64952 196.705 2.93456C196.241 3.21959 195.867 3.62911 195.629 4.11558L182.339 31.0315C182.022 31.7056 181.981 32.4741 182.222 33.1778C182.463 33.8814 182.969 34.4663 183.634 34.811ZM377.136 3.32683C376.864 3.05557 376.541 2.84025 376.185 2.6933C375.828 2.54636 375.446 2.4707 375.06 2.4707C374.674 2.4707 374.291 2.54636 373.935 2.6933C373.578 2.84025 373.255 3.05557 372.983 3.32683L349.128 26.9235L325.272 3.32683C325 3.05557 324.677 2.84025 324.32 2.6933C323.964 2.54636 323.582 2.4707 323.196 2.4707C322.809 2.4707 322.427 2.54636 322.071 2.6933C321.714 2.84025 321.391 3.05557 321.119 3.32683C320.573 3.87417 320.267 4.61206 320.267 5.38086C320.267 6.14966 320.573 6.88755 321.119 7.43489L347.001 33.0363C347.276 33.3221 347.605 33.5508 347.971 33.7088C348.336 33.8668 348.729 33.951 349.128 33.9565C349.531 33.9517 349.93 33.868 350.301 33.71C350.671 33.5521 351.007 33.3231 351.287 33.0363L377.136 7.40202C377.672 6.85617 377.972 6.12527 377.972 5.36443C377.972 4.60359 377.672 3.87269 377.136 3.32683ZM349.161 42.4026C348.382 42.4113 347.639 42.7233 347.091 43.2709C346.544 43.8185 346.237 44.5575 346.237 45.3276V73.8868C346.193 74.2947 346.237 74.7072 346.364 75.0975C346.492 75.4877 346.701 75.8471 346.979 76.1521C347.256 76.4571 347.595 76.7011 347.974 76.868C348.353 77.035 348.763 77.1213 349.178 77.1213C349.592 77.1213 350.002 77.035 350.381 76.868C350.76 76.7011 351.099 76.4571 351.376 76.1521C351.654 75.8471 351.863 75.4877 351.991 75.0975C352.118 74.7072 352.162 74.2947 352.118 73.8868V45.3276C352.118 44.5518 351.806 43.8079 351.252 43.2593C350.697 42.7108 349.945 42.4026 349.161 42.4026ZM90.1726 34.548H125.059C127.772 34.7787 130.503 34.3652 133.022 33.342C135.542 32.3188 137.778 30.7155 139.545 28.6653C141.702 25.821 142.867 22.3614 142.867 18.806V18.5759C142.887 15.0174 141.719 11.5519 139.545 8.7166C137.775 6.67237 135.537 5.07528 133.017 4.05789C130.498 3.0405 127.77 2.63215 125.059 2.86673H90.1726C89.7859 2.86671 89.4029 2.94259 89.046 3.08998C88.6891 3.23737 88.3653 3.45334 88.0933 3.72539C87.8214 3.99743 87.6067 4.32014 87.4618 4.67482C87.3168 5.02951 87.2444 5.40912 87.2488 5.79167V18.7074V31.656C87.2444 32.037 87.317 32.415 87.4623 32.7679C87.6077 33.1208 87.8229 33.4414 88.0953 33.7108C88.3677 33.9802 88.6917 34.1931 89.0485 34.3369C89.4052 34.4807 89.7874 34.5525 90.1726 34.548ZM93.03 8.68374H124.992C126.799 8.45707 128.634 8.67774 130.333 9.32593C132.033 9.97411 133.542 11.0295 134.727 12.3974C136.125 14.2129 136.894 16.4256 136.92 18.7074C136.901 21.0005 136.132 23.2257 134.727 25.0502C133.543 26.4013 132.044 27.4459 130.359 28.0931C128.674 28.7403 126.854 28.9706 125.059 28.7639H93.03V8.68374ZM313.145 42.4684H291.516C291.103 42.425 290.686 42.4678 290.292 42.5942C289.897 42.7206 289.534 42.9276 289.225 43.2019C288.917 43.4762 288.67 43.8116 288.502 44.1863C288.333 44.561 288.246 44.9667 288.246 45.3769C288.246 45.7871 288.333 46.1927 288.502 46.5674C288.67 46.9421 288.917 47.2775 289.225 47.5518C289.534 47.8261 289.897 48.0332 290.292 48.1596C290.686 48.2859 291.103 48.3288 291.516 48.2854H309.391C307.257 55.1072 302.882 61.0295 296.96 65.114C291.039 69.1984 283.908 71.2115 276.699 70.8342C269.49 70.4569 262.614 67.7108 257.161 63.031C251.708 58.3513 247.99 52.0054 246.596 44.9989C246.39 44.2973 245.926 43.6972 245.296 43.3167C244.665 42.9362 243.913 42.8029 243.188 42.943C242.464 43.0831 241.818 43.4865 241.379 44.0737C240.939 44.661 240.738 45.3897 240.814 46.1163C242.505 54.7565 247.183 62.5454 254.046 68.146C260.908 73.7467 269.528 76.8099 278.425 76.8099C287.322 76.8099 295.942 73.7467 302.805 68.146C309.667 62.5454 314.345 54.7565 316.036 46.1163C316.119 45.6952 316.106 45.2609 315.997 44.8456C315.887 44.4303 315.685 44.0446 315.404 43.7172C315.146 43.355 314.809 43.0546 314.418 42.8385C314.027 42.6223 313.592 42.4958 313.145 42.4684ZM243.306 33.6936C244.068 33.8518 244.861 33.7103 245.519 33.2992C246.176 32.8881 246.646 32.2397 246.828 31.4917C248.476 24.4896 252.44 18.2322 258.091 13.712C263.861 9.12716 271.041 6.62802 278.442 6.62802C285.843 6.62802 293.022 9.12716 298.792 13.712C304.445 18.2305 308.41 24.4886 310.055 31.4917C310.199 32.1351 310.561 32.7106 311.08 33.123C311.6 33.5354 312.246 33.7599 312.913 33.7593H313.544C314.252 33.5589 314.859 33.1042 315.247 32.4841C315.634 31.8641 315.773 31.1234 315.637 30.4071C313.69 22.057 308.939 14.6063 302.159 9.27102C295.38 3.93579 286.972 1.03113 278.309 1.03113C269.645 1.03113 261.238 3.93579 254.458 9.27102C247.679 14.6063 242.928 22.057 240.981 30.4071C240.863 31.1461 241.04 31.9013 241.474 32.5141C241.907 33.1269 242.564 33.5496 243.306 33.6936ZM147.386 49.0741C145.538 46.9352 143.206 45.2579 140.579 44.1785C137.952 43.0992 135.105 42.6484 132.269 42.8627H90.1726C89.7874 42.8583 89.4052 42.9301 89.0485 43.0739C88.6917 43.2177 88.3677 43.4306 88.0953 43.7C87.8229 43.9694 87.6077 44.29 87.4623 44.6429C87.317 44.9958 87.2444 45.3738 87.2488 45.7548V59.5579V73.3281C87.2488 74.0951 87.5569 74.8307 88.1052 75.3731C88.6535 75.9155 89.3972 76.2202 90.1726 76.2202H132.269C135.105 76.4345 137.952 75.9837 140.579 74.9044C143.206 73.825 145.538 72.1477 147.386 70.0088C149.728 67.0399 151.012 63.3891 151.041 59.6236V59.3607C150.993 55.6287 149.709 52.0151 147.386 49.0741ZM142.867 66.558C141.372 68.4313 138.781 70.6003 132.335 70.6003H93.03V48.6469H132.269C138.714 48.6469 141.306 50.8159 142.801 52.6892C144.327 54.663 145.167 57.0728 145.193 59.5579C145.227 62.0823 144.409 64.5458 142.867 66.558Z" fill="#FF2675"></path> </g> <defs> <clipPath id="clip0_203_411"> <rect width="378" height="112.659" fill="white" transform="translate(0.000244141 0.8302)"></rect> </clipPath> </defs> </svg> 