<?xml version="1.0" encoding="UTF-8"?> <svg xmlns="http://www.w3.org/2000/svg" width="83" height="100" viewBox="0 0 83 100" fill="none"> <path d="M0 0H83V97C83 98.6569 81.6569 100 80 100H3C1.34314 100 0 98.6569 0 97V0Z" fill="black"></path> <path d="M31.4305 37.6558V44.6655H25.4319V17.7095H31.4305C33.5395 17.7056 35.5989 18.3273 37.3304 19.4907C39.0618 20.6541 40.3818 22.3031 41.1118 24.2147C41.8418 26.1263 41.9469 28.2084 41.4126 30.1796C40.8782 32.1507 39.7305 33.9158 38.1242 35.2362L43.4769 40.4077L44.7337 39.1934C47.7241 36.1247 49.353 32.047 49.2716 27.8329C49.1901 23.6187 47.4051 19.6027 44.2984 16.6438C41.1914 13.6849 37.0094 12.0182 32.6468 12.0001C28.2843 11.9821 24.0876 13.6142 20.9546 16.5473C17.6171 19.7642 15.5444 24.0044 15.0931 28.5383C14.6418 33.0722 15.8401 37.6164 18.4819 41.3888C21.1237 45.1614 25.0437 47.9264 29.5676 49.2083C34.0914 50.4902 38.9364 50.2087 43.2686 48.4124L32.1046 37.6331C31.8869 37.649 31.6599 37.6558 31.4305 37.6558Z" fill="#F7B500"></path> <path d="M31.4305 23.5887V32.1249C32.6012 32.1249 33.724 31.6755 34.5518 30.8758C35.3796 30.076 35.8446 28.9913 35.8446 27.8602C35.8446 26.7291 35.3796 25.6444 34.5518 24.8446C33.724 24.0448 32.6012 23.5955 31.4305 23.5955V23.5887Z" fill="#F7B500"></path> <path d="M16.9685 67.9611C17.0938 68.9723 17.9209 69.6995 19.2628 69.6995C19.9665 69.6995 20.8881 69.4176 21.3239 68.9376L22.5424 70.2123C21.7307 71.105 20.4023 71.5361 19.232 71.5361C16.5771 71.5361 15 69.7976 15 67.1848C15 64.7027 16.5925 62.9152 19.0912 62.9152C21.669 62.9152 23.2769 64.6026 22.98 67.9611H16.9685ZM21.1523 66.29C21.0269 65.2318 20.248 64.7027 19.1549 64.7027C18.1234 64.7027 17.2808 65.2318 16.9993 66.29H21.1523Z" fill="#F7B500"></path> <path d="M26.2865 60.8643C26.2865 62.4352 24.0385 62.4352 24.0385 60.8643C24.0385 59.2933 26.2865 59.2933 26.2865 60.8643ZM24.2101 63.1318V71.3196H26.1149V63.1318H24.2101Z" fill="#F7B500"></path> <path d="M35.622 59.755V71.3196H33.8405L33.7171 70.194C33.1233 71.1705 32.1747 71.5014 31.2338 71.5014C28.9684 71.5034 27.2621 69.9141 27.2621 67.2339C27.2621 64.4209 28.9318 62.9663 31.1818 62.9663C31.9935 62.9663 33.2582 63.428 33.7113 64.2717V59.755H35.622ZM29.1728 67.2339C29.1728 68.6639 30.1368 69.6322 31.3591 69.6322C31.6568 69.6397 31.953 69.5825 32.2291 69.4642C32.5051 69.3459 32.7554 69.1689 32.9646 68.9443C33.1738 68.7196 33.3373 68.4519 33.4452 68.1578C33.553 67.8636 33.6029 67.5492 33.5918 67.2339C33.5985 66.9205 33.5455 66.6089 33.436 66.3177C33.3263 66.0265 33.1624 65.7618 32.954 65.5394C32.7454 65.317 32.4967 65.1414 32.2227 65.0233C31.9487 64.9052 31.6549 64.8469 31.3591 64.8519C30.1406 64.8519 29.1728 65.761 29.1728 67.2339Z" fill="#F7B500"></path> <path d="M44.807 67.2502C44.807 69.5995 43.2916 71.5034 40.7929 71.5034C38.2942 71.5034 36.7962 69.5995 36.7962 67.2502C36.7962 64.9009 38.327 62.999 40.7775 62.999C43.228 62.999 44.807 64.9172 44.807 67.2502ZM38.701 67.2502C38.701 68.4922 39.4047 69.6505 40.7929 69.6505C42.1811 69.6505 42.879 68.4922 42.879 67.2502C42.879 66.0081 42.0654 64.8355 40.7852 64.8355C39.4086 64.8355 38.6972 66.0265 38.6972 67.2502H38.701Z" fill="#F7B500"></path> <path d="M50.832 65.3319C50.2864 64.7845 49.6617 64.6026 48.9272 64.6026C48.0229 64.6026 47.5236 64.9009 47.5236 65.4198C47.5236 65.9387 47.9747 66.2369 48.9599 66.3146C50.4117 66.4126 52.2549 66.7599 52.2549 68.9274C52.2549 70.3676 51.1444 71.6076 48.9445 71.6076C47.726 71.6076 46.5075 71.4033 45.3835 70.1531L46.3205 68.7231C46.8661 69.3686 48.1155 69.8487 48.9754 69.865C49.6926 69.8814 50.3655 69.4851 50.3655 68.8886C50.3655 68.3268 49.9278 68.0939 48.8346 68.0285C47.3828 67.9121 45.6496 67.3503 45.6496 65.4974C45.6496 63.6098 47.4908 62.9479 48.8963 62.9479C50.0994 62.9479 51.0056 63.1972 51.8944 64.0245L50.832 65.3319Z" fill="#F7B500"></path> <path d="M16.7916 80.0799L16.9315 80.9649C17.53 80.0187 18.3326 79.8788 19.1196 79.8788C19.8547 79.8677 20.5678 80.1273 21.1191 80.6067L20.2524 82.252C20.0651 82.0841 19.8459 81.9544 19.6075 81.8707C19.3689 81.7868 19.1159 81.7504 18.8631 81.7636C17.8545 81.7636 16.9199 82.2903 16.9199 83.702V87.7359H15V80.0799H16.7916Z" fill="#F7B500"></path> <path d="M29.1503 83.9108C29.1503 86.1154 27.6229 87.8987 25.1046 87.8987C22.5862 87.8987 21.0763 86.1154 21.0763 83.9108C21.0763 81.7061 22.6192 79.9248 25.0812 79.9248C27.5433 79.9248 29.1503 81.7253 29.1503 83.9108ZM22.9962 83.9108C22.9962 85.0753 23.7035 86.1614 25.1046 86.1614C26.5056 86.1614 27.2187 85.0753 27.2187 83.9108C27.2187 82.7462 26.4007 81.6467 25.1104 81.6467C23.721 81.6467 22.9962 82.7634 22.9962 83.9108Z" fill="#F7B500"></path> <path d="M32.2282 76.885V81.12C32.6849 80.3289 33.9596 79.8941 34.7777 79.8941C37.0434 79.8941 38.7282 81.2598 38.7282 83.8954C38.7282 86.4085 37.0124 87.8987 34.7291 87.8987C33.7867 87.8987 32.8248 87.5884 32.2282 86.6728L32.1019 87.7282H30.3084V76.885H32.2282ZM32.3526 83.8954C32.3413 84.1912 32.3917 84.4861 32.5003 84.762C32.6091 85.038 32.7739 85.2889 32.9845 85.4998C33.1954 85.7105 33.4476 85.8765 33.7258 85.9878C34.0043 86.0989 34.3026 86.1528 34.6028 86.146C35.829 86.146 36.8064 85.2305 36.8064 83.8954C36.8064 82.5163 35.8348 81.662 34.6028 81.662C34.3047 81.6573 34.0086 81.712 33.7325 81.8228C33.4563 81.9335 33.2057 82.0982 32.9954 82.3066C32.7853 82.5152 32.6202 82.7634 32.5096 83.0364C32.3992 83.3093 32.3458 83.6016 32.3526 83.8954Z" fill="#F7B500"></path> <path d="M47.6397 83.9108C47.6397 86.1154 46.1123 87.8987 43.5959 87.8987C41.0795 87.8987 39.5657 86.1154 39.5657 83.9108C39.5657 81.7061 41.1086 79.9248 43.5784 79.9248C46.0482 79.9248 47.6397 81.7253 47.6397 83.9108ZM41.4856 83.9108C41.4856 85.0753 42.1949 86.1614 43.5959 86.1614C44.9969 86.1614 45.7042 85.0753 45.7042 83.9108C45.7042 82.7462 44.8862 81.6467 43.5959 81.6467C42.2104 81.6467 41.4856 82.7634 41.4856 83.9108Z" fill="#F7B500"></path> <path d="M51.4269 77.9328V80.1049H53.5644V81.7349H51.4114V85.039C51.4114 85.7668 51.8214 86.125 52.4199 86.125C52.7426 86.1156 53.0592 86.0358 53.3468 85.8913L53.8831 87.5041C53.3792 87.7118 52.8396 87.8223 52.2936 87.8297C50.6088 87.893 49.507 86.9467 49.507 85.039V81.7253H48.0594V80.0953H49.507V78.1243L51.4269 77.9328Z" fill="#F7B500"></path> <path d="M56.8386 77.9328C56.8386 79.4076 54.5709 79.4076 54.5709 77.9328C54.5709 76.4579 56.8386 76.4502 56.8386 77.9328ZM54.7439 80.0589V87.7378H56.6657V80.0493L54.7439 80.0589Z" fill="#F7B500"></path> <path d="M64.8971 86.7437C64.5114 87.1392 64.0462 87.4511 63.5312 87.6593C63.0163 87.8675 62.4629 87.9673 61.9065 87.9523C59.6563 87.9523 57.7831 86.6115 57.7831 83.9031C57.7831 81.1947 59.6563 79.8559 61.9065 79.8559C62.429 79.8398 62.9488 79.9332 63.4319 80.13C63.915 80.3269 64.3501 80.6224 64.7086 80.9974L63.496 82.254C63.0705 81.8713 62.5175 81.656 61.9415 81.6487C60.6512 81.6487 59.7068 82.5796 59.7068 83.9127C59.7068 85.3723 60.7153 86.148 61.9104 86.148C62.2227 86.1597 62.534 86.1093 62.826 86.0001C63.1181 85.891 63.3849 85.7249 63.6107 85.5121L64.8971 86.7437Z" fill="#F7B500"></path> <path d="M70.9404 82.1122C70.3905 81.6008 69.7609 81.4303 69.0206 81.4303C68.1092 81.4303 67.604 81.708 67.604 82.1965C67.604 82.6849 68.0606 82.9626 69.0516 83.0354C70.5168 83.1274 72.3725 83.4549 72.3725 85.4872C72.3725 86.828 71.2552 88.0002 69.0361 88.0002C67.81 88.0002 66.5819 87.7972 65.449 86.6345L66.3934 85.2937C66.9433 85.899 68.2025 86.3491 69.0691 86.3644C69.792 86.3798 70.4682 86.0082 70.4682 85.4489C70.4682 84.9221 70.0291 84.7038 68.9273 84.6425C67.4621 84.5333 65.7152 84.0065 65.7152 82.2693C65.7152 80.5013 67.5729 79.8807 68.9895 79.8807C70.202 79.8807 71.1134 80.1125 72.0111 80.8882L70.9404 82.1122Z" fill="#F7B500"></path> </svg> 