<?xml version="1.0" encoding="UTF-8"?>
<!DOCTYPE svg PUBLIC "-//W3C//DTD SVG 1.1//EN" "http://www.w3.org/Graphics/SVG/1.1/DTD/svg11.dtd">
<svg version="1.2" width="103.46mm" height="24.34mm" viewBox="1283 1323 10346 2434" preserveAspectRatio="xMidYMid" fill-rule="evenodd" stroke-width="28.222" stroke-linejoin="round" xmlns="http://www.w3.org/2000/svg" xmlns:ooo="http://xml.openoffice.org/svg/export" xmlns:xlink="http://www.w3.org/1999/xlink" xmlns:presentation="http://sun.com/xmlns/staroffice/presentation" xmlns:smil="http://www.w3.org/2001/SMIL20/" xmlns:anim="urn:oasis:names:tc:opendocument:xmlns:animation:1.0" xml:space="preserve">
 <defs class="EmbeddedBulletChars">
  <g id="bullet-char-template-57356" transform="scale(0.00048828125,-0.00048828125)">
   <path d="M 580,1141 L 1163,571 580,0 -4,571 580,1141 Z"/>
  </g>
  <g id="bullet-char-template-57354" transform="scale(0.00048828125,-0.00048828125)">
   <path d="M 8,1128 L 1137,1128 1137,0 8,0 8,1128 Z"/>
  </g>
  <g id="bullet-char-template-10146" transform="scale(0.00048828125,-0.00048828125)">
   <path d="M 174,0 L 602,739 174,1481 1456,739 174,0 Z M 1358,739 L 309,1346 659,739 1358,739 Z"/>
  </g>
  <g id="bullet-char-template-10132" transform="scale(0.00048828125,-0.00048828125)">
   <path d="M 2015,739 L 1276,0 717,0 1260,543 174,543 174,936 1260,936 717,1481 1274,1481 2015,739 Z"/>
  </g>
  <g id="bullet-char-template-10007" transform="scale(0.00048828125,-0.00048828125)">
   <path d="M 0,-2 C -7,14 -16,27 -25,37 L 356,567 C 262,823 215,952 215,954 215,979 228,992 255,992 264,992 276,990 289,987 310,991 331,999 354,1012 L 381,999 492,748 772,1049 836,1024 860,1049 C 881,1039 901,1025 922,1006 886,937 835,863 770,784 769,783 710,716 594,584 L 774,223 C 774,196 753,168 711,139 L 727,119 C 717,90 699,76 672,76 641,76 570,178 457,381 L 164,-76 C 142,-110 111,-127 72,-127 30,-127 9,-110 8,-76 1,-67 -2,-52 -2,-32 -2,-23 -1,-13 0,-2 Z"/>
  </g>
  <g id="bullet-char-template-10004" transform="scale(0.00048828125,-0.00048828125)">
   <path d="M 285,-33 C 182,-33 111,30 74,156 52,228 41,333 41,471 41,549 55,616 82,672 116,743 169,778 240,778 293,778 328,747 346,684 L 369,508 C 377,444 397,411 428,410 L 1163,1116 C 1174,1127 1196,1133 1229,1133 1271,1133 1292,1118 1292,1087 L 1292,965 C 1292,929 1282,901 1262,881 L 442,47 C 390,-6 338,-33 285,-33 Z"/>
  </g>
  <g id="bullet-char-template-9679" transform="scale(0.00048828125,-0.00048828125)">
   <path d="M 813,0 C 632,0 489,54 383,161 276,268 223,411 223,592 223,773 276,916 383,1023 489,1130 632,1184 813,1184 992,1184 1136,1130 1245,1023 1353,916 1407,772 1407,592 1407,412 1353,268 1245,161 1136,54 992,0 813,0 Z"/>
  </g>
  <g id="bullet-char-template-8226" transform="scale(0.00048828125,-0.00048828125)">
   <path d="M 346,457 C 273,457 209,483 155,535 101,586 74,649 74,723 74,796 101,859 155,911 209,963 273,989 346,989 419,989 480,963 531,910 582,859 608,796 608,723 608,648 583,586 532,535 482,483 420,457 346,457 Z"/>
  </g>
  <g id="bullet-char-template-8211" transform="scale(0.00048828125,-0.00048828125)">
   <path d="M -4,459 L 1135,459 1135,606 -4,606 -4,459 Z"/>
  </g>
  <g id="bullet-char-template-61548" transform="scale(0.00048828125,-0.00048828125)">
   <path d="M 173,740 C 173,903 231,1043 346,1159 462,1274 601,1332 765,1332 928,1332 1067,1274 1183,1159 1299,1043 1357,903 1357,740 1357,577 1299,437 1183,322 1067,206 928,148 765,148 601,148 462,206 346,322 231,437 173,577 173,740 Z"/>
  </g>
 </defs>
 <g class="Page">
  <g class="Graphic">
   <g id="id3">
    <rect class="BoundingBox" stroke="none" fill="none" x="1283" y="1323" width="10346" height="2434"/>
    <defs>
     <clipPath id="clip_path_1" clipPathUnits="userSpaceOnUse">
      <path d="M 1283,1323 L 11628,1323 11628,3756 1283,3756 1283,1323 Z"/>
     </clipPath>
    </defs>
    <g clip-path="url(#clip_path_1)">
     <path fill="rgb(0,93,159)" stroke="none" d="M 4841,1974 L 4800,1974 4800,2312 4647,2312 4647,1522 4800,1522 4800,1871 4836,1856 5054,1522 5230,1522 5000,1853 4939,1896 5002,1940 5265,2312 5075,2312 4841,1974 4841,1974 Z M 4841,1974 L 4841,1974 4841,1974 Z M 3932,1522 L 3932,3527 3887,3527 3887,1522 3932,1522 3932,1522 Z M 3932,1522 L 3932,1522 3932,1522 Z M 1491,1522 L 3175,1522 3195,1522 3197,1522 3197,1524 3197,1544 3197,2868 3197,2874 3197,2874 3197,2874 3197,2876 3197,2876 3197,2880 3197,2880 3197,2888 3197,2890 3197,2890 C 3194,2970 3170,3053 3128,3133 3084,3214 3022,3291 2946,3358 2866,3428 2770,3488 2664,3530 2565,3568 2458,3591 2345,3593 L 2333,3593 2333,3593 C 2221,3593 2114,3573 2016,3537 1912,3500 1817,3445 1737,3378 1656,3312 1590,3233 1544,3148 1499,3065 1473,2978 1469,2890 L 1469,2890 1469,2888 1469,2870 1469,2868 1469,1544 1469,1524 1469,1522 1471,1522 1491,1522 1491,1522 Z M 1491,1522 L 1491,1522 1491,1522 Z M 2092,3347 L 2117,3347 2117,3277 2119,3264 2111,3275 2095,3286 2085,3272 2126,3240 2139,3240 2139,3347 2163,3347 2163,3365 2092,3365 2092,3347 2092,3347 Z M 2092,3347 L 2092,3347 2092,3347 Z M 2221,3336 C 2221,3332 2222,3328 2223,3325 2224,3321 2225,3319 2227,3316 2229,3313 2231,3311 2234,3309 2237,3307 2240,3305 2243,3303 2237,3299 2232,3295 2229,3290 2226,3285 2224,3279 2224,3272 2224,3268 2225,3263 2227,3259 2228,3255 2231,3252 2234,3249 2237,3246 2241,3244 2246,3242 2250,3240 2256,3239 2261,3239 2267,3239 2272,3240 2276,3242 2280,3243 2284,3245 2287,3248 2290,3250 2293,3253 2295,3257 2296,3261 2297,3265 2297,3269 2297,3276 2296,3282 2293,3287 2289,3292 2285,3296 2279,3301 2286,3305 2291,3309 2295,3314 2298,3319 2300,3326 2300,3333 2300,3339 2299,3344 2297,3348 2295,3352 2293,3356 2289,3359 2285,3362 2281,3364 2276,3365 2271,3367 2266,3368 2260,3368 2254,3368 2249,3367 2244,3365 2239,3365 2235,3363 2232,3360 2228,3357 2226,3353 2224,3349 2222,3345 2221,3341 2221,3336 L 2221,3336 Z M 2221,3336 L 2221,3336 2221,3336 Z M 2278,3334 C 2278,3331 2278,3328 2276,3326 2275,3324 2273,3322 2271,3320 2269,3318 2267,3316 2264,3315 2262,3313 2259,3312 2257,3310 2251,3314 2247,3317 2245,3321 2243,3325 2242,3328 2242,3332 2242,3337 2244,3341 2247,3344 2250,3348 2255,3349 2260,3349 2266,3349 2270,3348 2273,3345 2277,3343 2278,3339 2278,3334 L 2278,3334 Z M 2278,3334 L 2278,3334 2278,3334 Z M 2246,3273 C 2246,3275 2247,3278 2248,3280 2249,3282 2250,3284 2252,3286 2254,3287 2256,3289 2258,3290 2261,3291 2263,3293 2265,3294 2273,3288 2276,3281 2276,3274 2276,3269 2275,3265 2272,3263 2269,3260 2265,3259 2261,3259 2256,3259 2252,3260 2250,3263 2247,3266 2246,3269 2246,3273 L 2246,3273 Z M 2246,3273 L 2246,3273 2246,3273 Z M 2353,3304 C 2353,3282 2357,3266 2365,3255 2372,3245 2383,3239 2397,3239 2412,3239 2423,3245 2430,3255 2437,3266 2440,3282 2440,3304 2440,3326 2436,3342 2429,3353 2421,3363 2411,3368 2397,3368 2382,3368 2371,3363 2364,3352 2357,3341 2353,3325 2353,3304 L 2353,3304 Z M 2353,3304 L 2353,3304 2353,3304 Z M 2376,3304 C 2376,3318 2378,3330 2381,3337 2384,3345 2390,3349 2397,3349 2404,3349 2409,3346 2412,3338 2415,3331 2417,3320 2417,3304 2417,3290 2415,3278 2412,3271 2409,3263 2404,3259 2397,3259 2389,3259 2384,3263 2381,3270 2378,3277 2376,3289 2376,3304 L 2376,3304 Z M 2376,3304 L 2376,3304 2376,3304 Z M 2581,3332 L 2561,3332 2561,3365 2540,3365 2540,3332 2486,3332 2486,3318 2542,3241 2561,3241 2561,3313 2581,3313 2581,3332 2581,3332 Z M 2581,3332 L 2581,3332 2581,3332 Z M 2540,3286 L 2541,3271 2541,3271 2534,3284 2516,3308 2507,3315 2518,3313 2540,3313 2540,3286 2540,3286 Z M 2540,3286 L 2540,3286 2540,3286 Z M 2072,2032 C 2020,2002 1998,2046 1946,2057 1889,2069 1874,2023 1850,1983 1890,1992 1892,2011 1944,1975 1983,1949 2032,1966 2060,1998 L 2029,1913 C 2123,1912 2230,1900 2323,1913 L 2335,1915 C 2435,1935 2510,2020 2510,2129 2510,2207 2465,2295 2398,2342 L 2398,2352 C 2487,2332 2588,2257 2597,2216 2584,2211 2553,2193 2554,2191 2519,2167 2504,2117 2512,2080 2520,2042 2538,2023 2563,2008 2580,1999 2596,1994 2614,1992 L 3081,1926 C 3083,1942 3085,1958 3085,1974 3099,2259 2878,2502 2593,2515 2495,2520 2370,2466 2325,2373 2323,2374 2321,2374 2318,2375 2301,2376 2286,2379 2271,2383 2256,2445 2383,2493 2530,2517 L 2507,2551 C 2534,2542 2564,2538 2595,2538 2756,2538 2888,2669 2888,2830 2888,2992 2756,3124 2595,3124 2433,3124 2302,2992 2302,2830 2302,2814 2303,2798 2306,2782 L 2316,2783 2493,2795 C 2484,2810 2479,2827 2479,2845 2479,2897 2522,2940 2574,2940 2627,2940 2669,2897 2669,2845 2669,2793 2628,2751 2577,2750 L 2576,2749 2565,2750 C 2564,2750 2563,2750 2561,2751 L 2409,2769 C 2342,2780 2284,2784 2235,2782 L 2024,3071 1997,3001 C 1848,2988 1900,3057 1933,3086 1936,3089 1936,3101 1933,3103 1878,3099 1830,3054 1830,2997 1830,2939 1878,2890 1937,2890 1976,2890 2010,2912 2029,2943 L 2124,2641 2109,2641 2051,2724 C 2017,2688 1990,2645 1974,2598 L 1812,2397 C 1805,2412 1794,2426 1781,2436 L 1749,2351 C 1677,2347 1633,2364 1670,2419 L 1686,2419 1684,2392 1729,2392 1721,2486 1722,2487 1721,2487 1721,2489 1690,2489 1690,2482 1688,2452 C 1647,2438 1608,2405 1608,2354 1608,2314 1635,2274 1673,2257 L 1653,1981 1602,1917 1687,1917 C 1684,1882 1695,1843 1716,1812 1697,1816 1680,1826 1663,1854 1652,1793 1702,1715 1772,1727 1841,1739 1835,1718 1871,1691 1869,1714 1868,1736 1863,1756 1935,1764 1932,1738 1978,1703 1970,1774 1977,1846 1890,1867 1810,1885 1751,1839 1696,1917 L 1706,1917 1810,1917 1760,1980 1739,2250 C 1756,2254 1772,2263 1785,2274 L 1914,2352 1943,2457 1956,2457 C 1969,2281 2114,2143 2292,2138 L 2285,2121 2106,2121 2072,2032 2072,2032 Z M 2072,2032 L 2072,2032 2072,2032 Z M 2064,2003 C 2070,2011 2075,2019 2078,2027 2154,2042 2296,2130 2249,2003 L 2064,2003 2064,2003 Z M 2064,2003 L 2064,2003 2064,2003 Z M 2189,1749 L 2235,1749 2235,1760 2250,1760 2250,1796 C 2240,1799 2234,1809 2234,1819 2234,1831 2241,1840 2251,1844 L 2252,1844 2252,1844 2252,1844 2252,1844 2252,1844 2253,1844 2253,1844 2253,1844 2253,1844 2253,1844 2253,1844 2253,1844 2254,1844 2254,1844 2254,1844 2254,1844 2254,1844 2254,1845 2254,1845 2255,1845 2255,1845 2255,1845 2255,1845 2255,1845 2255,1845 2256,1845 2256,1845 2256,1845 2256,1845 2256,1845 2256,1845 2256,1845 2256,1845 2256,1845 2257,1845 2257,1845 2257,1845 2257,1845 2257,1845 2258,1845 2258,1845 2258,1845 2258,1845 2258,1845 2259,1845 2259,1845 2259,1845 2259,1845 2259,1845 2259,1845 C 2274,1845 2285,1834 2285,1819 L 2285,1819 2285,1819 2285,1818 2285,1818 C 2285,1817 2285,1817 2285,1817 L 2285,1817 2285,1816 2285,1816 2285,1816 C 2285,1815 2285,1815 2285,1814 L 2285,1814 2285,1814 2285,1814 2284,1813 2284,1812 2284,1812 2284,1812 2284,1812 2284,1811 C 2283,1808 2280,1804 2278,1801 L 2278,1801 2277,1801 2277,1801 2277,1801 2277,1800 2277,1800 2276,1800 2276,1800 2276,1800 2276,1799 2276,1799 2275,1799 2275,1799 2275,1799 2274,1798 2274,1798 2274,1798 2274,1798 2274,1798 2273,1798 2273,1798 2273,1798 C 2273,1797 2273,1797 2272,1797 L 2272,1797 2271,1796 2271,1796 2271,1796 2271,1796 2270,1796 2270,1789 C 2270,1768 2289,1740 2310,1740 L 2349,1739 2293,1886 2133,1886 2077,1739 2114,1740 C 2135,1740 2154,1768 2154,1789 L 2154,1796 C 2149,1798 2144,1803 2142,1808 L 2142,1808 2141,1808 2141,1808 2141,1809 2141,1809 2141,1809 2141,1809 2141,1810 2141,1810 2141,1810 2140,1810 2140,1810 2140,1811 2140,1811 2140,1811 C 2140,1812 2140,1813 2139,1814 L 2139,1814 C 2139,1815 2139,1816 2139,1817 L 2139,1817 2139,1818 2139,1818 2139,1818 2139,1819 2139,1819 2139,1819 C 2139,1834 2150,1845 2165,1845 L 2165,1845 2165,1845 2165,1845 2165,1845 2165,1845 2166,1845 2166,1845 2166,1845 2166,1845 2166,1845 2167,1845 2167,1845 2167,1845 2167,1845 2167,1845 2168,1845 2168,1845 2168,1845 2168,1845 2168,1845 2168,1845 2168,1845 2169,1845 2169,1845 2169,1845 2169,1845 2169,1845 2169,1845 2169,1845 2169,1845 2170,1845 2170,1845 2170,1844 2170,1844 2170,1844 2170,1844 2171,1844 2171,1844 C 2182,1841 2190,1831 2190,1819 2190,1809 2184,1799 2174,1796 L 2174,1760 2189,1760 2189,1749 2189,1749 Z M 2189,1749 L 2189,1749 2189,1749 Z M 2833,2635 C 2957,2585 3072,2501 3098,2292 3074,2395 3020,2452 2953,2484 2881,2517 2794,2522 2710,2523 2767,2547 2805,2583 2833,2635 L 2833,2635 Z M 2833,2635 L 2833,2635 2833,2635 Z M 3153,1566 L 1513,1566 1513,2845 1513,2845 1513,2848 1513,2862 1513,2868 1513,2868 1513,2870 C 1513,2954 1537,3039 1580,3120 1623,3202 1687,3279 1765,3345 1841,3407 1932,3459 2031,3495 2125,3529 2226,3548 2333,3548 L 2333,3548 2345,3548 C 2452,3547 2554,3525 2648,3488 2749,3448 2840,3391 2916,3325 2990,3260 3050,3185 3090,3108 3130,3031 3153,2951 3153,2876 3153,2872 3153,2872 3153,2871 L 3153,2871 3153,2870 3153,2870 3153,2870 3153,2870 3153,2868 3153,2864 3153,2864 3152,2848 3152,2845 3153,2845 3153,1566 3153,1566 Z M 3153,1566 L 3153,1566 3153,1566 Z M 5042,2836 L 5120,2836 5120,3289 C 5120,3330 5115,3365 5104,3394 5093,3423 5078,3448 5058,3467 5039,3486 5015,3500 4987,3509 4960,3518 4929,3522 4895,3522 4815,3522 4755,3504 4715,3468 4675,3432 4654,3377 4654,3305 L 4654,2836 4735,2836 4735,3267 C 4735,3301 4738,3330 4744,3353 4751,3376 4761,3395 4774,3410 4788,3424 4805,3434 4825,3441 4846,3447 4869,3451 4896,3451 4949,3451 4986,3436 5009,3408 5031,3379 5042,3333 5042,3267 L 5042,2836 5042,2836 Z M 5042,2836 L 5042,2836 5042,2836 Z M 5609,3070 L 5557,2973 5553,2973 5563,3070 5563,3514 5487,3514 5487,2826 5530,2826 5854,3278 5905,3370 5909,3370 5899,3278 5899,2836 5974,2836 5974,3524 5932,3524 5609,3070 5609,3070 Z M 5609,3070 L 5609,3070 5609,3070 Z M 6360,2836 L 6440,2836 6440,3514 6360,3514 6360,2836 6360,2836 Z M 6360,2836 L 6360,2836 6360,2836 Z M 7004,3303 L 7027,3404 7028,3404 7053,3301 7216,2836 7297,2836 7040,3524 7005,3524 6743,2836 6831,2836 7004,3303 7004,3303 Z M 7004,3303 L 7004,3303 7004,3303 Z M 7580,2836 L 7949,2836 7949,2908 7660,2908 7660,3130 7925,3130 7925,3202 7660,3202 7660,3442 7954,3442 7954,3514 7580,3514 7580,2836 7580,2836 Z M 7580,2836 L 7580,2836 7580,2836 Z M 8302,2843 C 8326,2838 8355,2835 8387,2832 8419,2830 8448,2828 8474,2828 8504,2828 8532,2832 8559,2838 8586,2845 8609,2855 8629,2870 8650,2885 8666,2904 8678,2928 8691,2952 8697,2981 8697,3015 8697,3068 8682,3112 8653,3145 8624,3178 8587,3200 8543,3211 L 8589,3246 8758,3514 8664,3514 8477,3222 8382,3208 8382,3514 8302,3514 8302,2843 8302,2843 Z M 8302,2843 L 8302,2843 8302,2843 Z M 8476,2898 C 8468,2898 8459,2898 8450,2898 8441,2898 8432,2898 8424,2899 8415,2900 8408,2900 8400,2901 8393,2902 8387,2903 8382,2904 L 8382,3155 8458,3155 C 8502,3155 8539,3144 8568,3122 8597,3100 8612,3065 8612,3018 8612,2983 8600,2955 8576,2932 8552,2909 8519,2898 8476,2898 L 8476,2898 Z M 8476,2898 L 8476,2898 8476,2898 Z M 9387,3342 C 9387,3315 9379,3293 9362,3276 9346,3259 9326,3244 9302,3231 9278,3217 9251,3205 9223,3193 9195,3182 9168,3168 9144,3151 9120,3135 9100,3114 9084,3090 9068,3065 9059,3034 9059,2997 9059,2944 9078,2902 9115,2871 9151,2840 9204,2825 9271,2825 9311,2825 9347,2827 9379,2833 9411,2839 9436,2846 9454,2856 L 9430,2926 C 9415,2919 9394,2912 9365,2906 9336,2899 9304,2896 9268,2896 9225,2896 9193,2906 9172,2925 9150,2944 9140,2966 9140,2992 9140,3017 9148,3038 9164,3055 9180,3072 9200,3088 9224,3101 9249,3114 9275,3127 9303,3140 9332,3153 9358,3168 9382,3185 9406,3202 9427,3223 9443,3246 9459,3270 9467,3300 9467,3335 9467,3365 9462,3390 9451,3413 9441,3436 9426,3456 9406,3473 9386,3490 9362,3503 9333,3512 9305,3521 9273,3525 9237,3525 9188,3525 9148,3521 9117,3514 9085,3507 9060,3498 9043,3489 L 9070,3417 C 9085,3425 9107,3433 9136,3441 9165,3449 9198,3454 9234,3454 9255,3454 9275,3451 9294,3447 9312,3443 9329,3436 9342,3427 9356,3418 9366,3406 9374,3392 9383,3377 9387,3362 9387,3342 L 9387,3342 Z M 9387,3342 L 9387,3342 9387,3342 Z M 9815,2836 L 9895,2836 9895,3514 9815,3514 9815,2836 9815,2836 Z M 9815,2836 L 9815,2836 9815,2836 Z M 10719,2908 L 10508,2908 10508,3514 10428,3514 10428,2908 10217,2908 10217,2836 10719,2836 10719,2908 10719,2908 Z M 10719,2908 L 10719,2908 10719,2908 Z M 11159,3246 L 10935,2836 11029,2836 11188,3133 11204,3192 11205,3192 11223,3131 11375,2836 11461,2836 11239,3245 11239,3514 11159,3514 11159,3246 11159,3246 Z M 11159,3246 L 11159,3246 11159,3246 Z M 5316,1780 C 5346,1766 5382,1756 5424,1748 5465,1740 5508,1736 5553,1736 5592,1736 5625,1741 5652,1750 5678,1760 5699,1773 5714,1790 5730,1807 5741,1828 5747,1852 5753,1876 5757,1903 5757,1934 5757,1967 5755,2000 5753,2033 5751,2068 5750,2101 5749,2133 5749,2166 5750,2196 5752,2227 5754,2257 5760,2286 5769,2313 L 5649,2313 5626,2235 5620,2235 C 5605,2258 5584,2278 5557,2295 5531,2312 5496,2321 5454,2321 5428,2321 5404,2317 5383,2309 5362,2301 5344,2290 5329,2275 5314,2260 5302,2243 5294,2223 5285,2203 5281,2181 5281,2157 5281,2122 5289,2093 5304,2069 5320,2046 5342,2026 5371,2011 5400,1996 5435,1986 5475,1980 5515,1975 5560,1973 5610,1975 5615,1933 5612,1903 5601,1884 5589,1866 5564,1857 5525,1857 5496,1857 5465,1860 5432,1866 5399,1872 5372,1880 5351,1890 L 5316,1780 5316,1780 Z M 5316,1780 L 5316,1780 5316,1780 Z M 5503,2200 C 5532,2200 5555,2193 5573,2180 5590,2168 5603,2154 5611,2139 L 5611,2066 C 5588,2063 5565,2063 5544,2064 5522,2066 5503,2069 5487,2075 5470,2080 5457,2087 5447,2097 5437,2107 5433,2119 5433,2134 5433,2155 5439,2172 5451,2183 5464,2194 5481,2200 5503,2200 L 5503,2200 Z M 5503,2200 L 5503,2200 5503,2200 Z M 5850,2188 L 6073,1920 6130,1871 5850,1871 5850,1747 6293,1747 6293,1871 6073,2145 6016,2188 6293,2188 6293,2312 5850,2312 5850,2188 5850,2188 Z M 5850,2188 L 5850,2188 5850,2188 Z M 6393,1780 C 6423,1766 6459,1756 6502,1748 6543,1740 6586,1736 6631,1736 6670,1736 6703,1741 6730,1750 6756,1760 6777,1773 6792,1790 6808,1807 6819,1828 6825,1852 6831,1876 6835,1903 6835,1934 6835,1967 6833,2000 6831,2033 6829,2068 6828,2101 6827,2133 6827,2166 6828,2196 6830,2227 6832,2257 6838,2286 6847,2313 L 6727,2313 6704,2235 6698,2235 C 6683,2258 6662,2278 6635,2295 6609,2312 6574,2321 6532,2321 6506,2321 6482,2317 6460,2309 6439,2301 6421,2290 6406,2275 6391,2260 6379,2243 6371,2223 6362,2203 6358,2181 6358,2157 6358,2122 6366,2093 6381,2069 6397,2046 6419,2026 6448,2011 6478,1996 6513,1986 6553,1980 6593,1975 6638,1973 6688,1975 6693,1933 6690,1903 6679,1884 6667,1866 6642,1857 6603,1857 6574,1857 6543,1860 6510,1866 6477,1872 6449,1880 6428,1890 L 6393,1780 6393,1780 Z M 6393,1780 L 6393,1780 6393,1780 Z M 6581,2200 C 6610,2200 6633,2193 6651,2180 6668,2168 6681,2154 6689,2139 L 6689,2066 C 6666,2063 6643,2063 6622,2064 6600,2066 6581,2069 6565,2075 6548,2080 6535,2087 6525,2097 6515,2107 6511,2119 6511,2134 6511,2155 6517,2172 6529,2183 6542,2194 6559,2200 6581,2200 L 6581,2200 Z M 6581,2200 L 6581,2200 6581,2200 Z M 7303,2312 L 7303,1991 C 7303,1945 7296,1912 7283,1892 7270,1871 7248,1861 7216,1861 7188,1861 7165,1869 7146,1886 7126,1902 7113,1922 7104,1946 L 7104,2312 6958,2312 6958,1747 7074,1747 7091,1822 7095,1822 C 7113,1798 7136,1777 7164,1759 7193,1741 7230,1731 7275,1731 7303,1731 7328,1735 7349,1743 7371,1750 7390,1763 7405,1780 7420,1797 7431,1821 7439,1851 7446,1880 7450,1917 7450,1961 L 7450,2312 7303,2312 7303,2312 Z M 7303,2312 L 7303,2312 7303,2312 Z M 7862,1522 L 8330,1522 8330,1659 8017,1659 8017,1855 8306,1855 8306,1992 8017,1992 8017,2312 7862,2312 7862,1522 7862,1522 Z M 7862,1522 L 7862,1522 7862,1522 Z M 8884,2263 C 8861,2281 8830,2297 8792,2309 8753,2321 8712,2328 8668,2328 8577,2328 8510,2301 8468,2248 8426,2195 8405,2123 8405,2030 8405,1930 8429,1856 8476,1806 8523,1756 8590,1731 8676,1731 8704,1731 8732,1735 8759,1743 8786,1750 8811,1763 8832,1780 8853,1797 8870,1821 8882,1850 8895,1879 8902,1916 8902,1960 8902,1975 8901,1992 8899,2010 8897,2028 8894,2048 8890,2068 L 8552,2068 C 8554,2115 8566,2151 8588,2175 8611,2198 8646,2210 8696,2210 8727,2210 8755,2205 8779,2196 8804,2187 8822,2178 8835,2168 L 8884,2263 8884,2263 Z M 8884,2263 L 8884,2263 8884,2263 Z M 8674,1849 C 8635,1849 8607,1860 8588,1883 8570,1906 8559,1937 8555,1975 L 8765,1975 C 8768,1935 8762,1903 8746,1882 8731,1860 8707,1849 8674,1849 L 8674,1849 Z M 8674,1849 L 8674,1849 8674,1849 Z M 9485,2114 C 9485,2146 9486,2177 9486,2208 9487,2240 9491,2275 9497,2313 L 9392,2313 9371,2240 9367,2240 C 9352,2266 9330,2287 9302,2303 9274,2319 9240,2328 9202,2328 9131,2328 9076,2304 9037,2258 8998,2211 8978,2139 8978,2039 8978,1942 9000,1867 9044,1814 9088,1760 9151,1734 9236,1734 9259,1734 9278,1735 9293,1738 9308,1740 9323,1745 9339,1751 L 9339,1522 9485,1522 9485,2114 9485,2114 Z M 9485,2114 L 9485,2114 9485,2114 Z M 9236,2203 C 9264,2203 9287,2196 9304,2183 9320,2170 9332,2149 9339,2123 L 9339,1883 C 9328,1874 9316,1868 9304,1864 9291,1860 9274,1858 9254,1858 9212,1858 9181,1872 9161,1900 9140,1928 9130,1975 9130,2044 9130,2092 9138,2131 9155,2160 9172,2189 9199,2203 9236,2203 L 9236,2203 Z M 9236,2203 L 9236,2203 9236,2203 Z M 10065,2263 C 10042,2281 10011,2297 9973,2309 9934,2321 9893,2328 9849,2328 9758,2328 9691,2301 9649,2248 9607,2195 9586,2123 9586,2030 9586,1930 9610,1856 9657,1806 9704,1756 9771,1731 9857,1731 9885,1731 9913,1735 9940,1743 9967,1750 9992,1763 10013,1780 10034,1797 10051,1821 10063,1850 10076,1879 10083,1916 10083,1960 10083,1975 10082,1992 10080,2010 10078,2028 10075,2048 10071,2068 L 9733,2068 C 9735,2115 9747,2151 9769,2175 9792,2198 9827,2210 9877,2210 9908,2210 9936,2205 9960,2196 9985,2187 10003,2178 10016,2168 L 10065,2263 10065,2263 Z M 10065,2263 L 10065,2263 10065,2263 Z M 9855,1849 C 9816,1849 9788,1860 9769,1883 9751,1906 9740,1937 9736,1975 L 9946,1975 C 9949,1935 9943,1903 9927,1882 9912,1860 9888,1849 9855,1849 L 9855,1849 Z M 9855,1849 L 9855,1849 9855,1849 Z M 10498,1885 C 10475,1877 10454,1873 10435,1873 10409,1873 10386,1880 10369,1893 10351,1907 10339,1925 10333,1947 L 10333,2312 10186,2312 10186,1747 10301,1747 10317,1822 10322,1822 C 10335,1794 10352,1772 10374,1757 10396,1742 10421,1735 10451,1735 10470,1735 10492,1739 10517,1747 L 10498,1885 10498,1885 Z M 10498,1885 L 10498,1885 10498,1885 Z M 10579,1780 C 10609,1766 10645,1756 10687,1748 10728,1740 10771,1736 10816,1736 10856,1736 10888,1741 10915,1750 10941,1760 10962,1773 10977,1790 10993,1807 11004,1828 11010,1852 11016,1876 11020,1903 11020,1934 11020,1967 11019,2000 11016,2033 11014,2068 11013,2101 11012,2133 11012,2166 11013,2196 11015,2227 11017,2257 11023,2286 11032,2313 L 10912,2313 10889,2235 10883,2235 C 10868,2258 10847,2278 10820,2295 10794,2312 10759,2321 10717,2321 10691,2321 10667,2317 10646,2309 10625,2301 10607,2290 10592,2275 10577,2260 10565,2243 10557,2223 10549,2203 10544,2181 10544,2157 10544,2122 10552,2093 10568,2069 10583,2046 10605,2026 10634,2011 10663,1996 10698,1986 10738,1980 10778,1975 10823,1973 10873,1975 10878,1933 10875,1903 10864,1884 10853,1866 10827,1857 10788,1857 10759,1857 10728,1860 10695,1866 10662,1872 10635,1880 10614,1890 L 10579,1780 10579,1780 Z M 10579,1780 L 10579,1780 10579,1780 Z M 10766,2200 C 10795,2200 10818,2193 10836,2180 10853,2168 10866,2154 10874,2139 L 10874,2066 C 10851,2063 10828,2063 10807,2064 10785,2066 10766,2069 10750,2075 10733,2080 10720,2087 10710,2097 10701,2107 10696,2119 10696,2134 10696,2155 10702,2172 10714,2183 10727,2194 10744,2200 10766,2200 L 10766,2200 Z M 10766,2200 L 10766,2200 10766,2200 Z M 11294,2123 C 11294,2149 11297,2169 11304,2180 11311,2192 11322,2198 11337,2198 11346,2198 11355,2197 11363,2195 11372,2194 11383,2191 11396,2185 L 11411,2300 C 11399,2306 11381,2313 11356,2319 11331,2325 11306,2328 11279,2328 11236,2328 11204,2318 11181,2298 11158,2278 11147,2245 11147,2199 L 11147,1522 11294,1522 11294,2123 11294,2123 Z"/>
    </g>
   </g>
  </g>
 </g>
</svg>