<?xml version="1.0" encoding="UTF-8"?>
<!DOCTYPE svg PUBLIC "-//W3C//DTD SVG 1.1//EN" "http://www.w3.org/Graphics/SVG/1.1/DTD/svg11.dtd">
<svg version="1.2" width="297mm" height="210mm" viewBox="0 0 29700 21000" preserveAspectRatio="xMidYMid" fill-rule="evenodd" stroke-width="28.222" stroke-linejoin="round" xmlns="http://www.w3.org/2000/svg" xmlns:ooo="http://xml.openoffice.org/svg/export" xmlns:xlink="http://www.w3.org/1999/xlink" xmlns:presentation="http://sun.com/xmlns/staroffice/presentation" xmlns:smil="http://www.w3.org/2001/SMIL20/" xmlns:anim="urn:oasis:names:tc:opendocument:xmlns:animation:1.0" xml:space="preserve">
 <defs class="ClipPathGroup">
  <clipPath id="presentation_clip_path" clipPathUnits="userSpaceOnUse">
   <rect x="0" y="0" width="29700" height="21000"/>
  </clipPath>
  <clipPath id="presentation_clip_path_shrink" clipPathUnits="userSpaceOnUse">
   <rect x="29" y="21" width="29641" height="20958"/>
  </clipPath>
 </defs>
 <defs class="TextShapeIndex">
  <g ooo:slide="id1" ooo:id-list="id3"/>
 </defs>
 <defs class="EmbeddedBulletChars">
  <g id="bullet-char-template-57356" transform="scale(0.00048828125,-0.00048828125)">
   <path d="M 580,1141 L 1163,571 580,0 -4,571 580,1141 Z"/>
  </g>
  <g id="bullet-char-template-57354" transform="scale(0.00048828125,-0.00048828125)">
   <path d="M 8,1128 L 1137,1128 1137,0 8,0 8,1128 Z"/>
  </g>
  <g id="bullet-char-template-10146" transform="scale(0.00048828125,-0.00048828125)">
   <path d="M 174,0 L 602,739 174,1481 1456,739 174,0 Z M 1358,739 L 309,1346 659,739 1358,739 Z"/>
  </g>
  <g id="bullet-char-template-10132" transform="scale(0.00048828125,-0.00048828125)">
   <path d="M 2015,739 L 1276,0 717,0 1260,543 174,543 174,936 1260,936 717,1481 1274,1481 2015,739 Z"/>
  </g>
  <g id="bullet-char-template-10007" transform="scale(0.00048828125,-0.00048828125)">
   <path d="M 0,-2 C -7,14 -16,27 -25,37 L 356,567 C 262,823 215,952 215,954 215,979 228,992 255,992 264,992 276,990 289,987 310,991 331,999 354,1012 L 381,999 492,748 772,1049 836,1024 860,1049 C 881,1039 901,1025 922,1006 886,937 835,863 770,784 769,783 710,716 594,584 L 774,223 C 774,196 753,168 711,139 L 727,119 C 717,90 699,76 672,76 641,76 570,178 457,381 L 164,-76 C 142,-110 111,-127 72,-127 30,-127 9,-110 8,-76 1,-67 -2,-52 -2,-32 -2,-23 -1,-13 0,-2 Z"/>
  </g>
  <g id="bullet-char-template-10004" transform="scale(0.00048828125,-0.00048828125)">
   <path d="M 285,-33 C 182,-33 111,30 74,156 52,228 41,333 41,471 41,549 55,616 82,672 116,743 169,778 240,778 293,778 328,747 346,684 L 369,508 C 377,444 397,411 428,410 L 1163,1116 C 1174,1127 1196,1133 1229,1133 1271,1133 1292,1118 1292,1087 L 1292,965 C 1292,929 1282,901 1262,881 L 442,47 C 390,-6 338,-33 285,-33 Z"/>
  </g>
  <g id="bullet-char-template-9679" transform="scale(0.00048828125,-0.00048828125)">
   <path d="M 813,0 C 632,0 489,54 383,161 276,268 223,411 223,592 223,773 276,916 383,1023 489,1130 632,1184 813,1184 992,1184 1136,1130 1245,1023 1353,916 1407,772 1407,592 1407,412 1353,268 1245,161 1136,54 992,0 813,0 Z"/>
  </g>
  <g id="bullet-char-template-8226" transform="scale(0.00048828125,-0.00048828125)">
   <path d="M 346,457 C 273,457 209,483 155,535 101,586 74,649 74,723 74,796 101,859 155,911 209,963 273,989 346,989 419,989 480,963 531,910 582,859 608,796 608,723 608,648 583,586 532,535 482,483 420,457 346,457 Z"/>
  </g>
  <g id="bullet-char-template-8211" transform="scale(0.00048828125,-0.00048828125)">
   <path d="M -4,459 L 1135,459 1135,606 -4,606 -4,459 Z"/>
  </g>
  <g id="bullet-char-template-61548" transform="scale(0.00048828125,-0.00048828125)">
   <path d="M 173,740 C 173,903 231,1043 346,1159 462,1274 601,1332 765,1332 928,1332 1067,1274 1183,1159 1299,1043 1357,903 1357,740 1357,577 1299,437 1183,322 1067,206 928,148 765,148 601,148 462,206 346,322 231,437 173,577 173,740 Z"/>
  </g>
 </defs>
 <g>
  <g id="id2" class="Master_Slide">
   <g id="bg-id2" class="Background"/>
   <g id="bo-id2" class="BackgroundObjects"/>
  </g>
 </g>
 <g class="SlideGroup">
  <g>
   <g id="container-id1">
    <g id="id1" class="Slide" clip-path="url(#presentation_clip_path)">
     <g class="Page">
      <g class="com.sun.star.drawing.ClosedBezierShape">
       <g id="id3">
        <rect class="BoundingBox" stroke="none" fill="none" x="674" y="467" width="9995" height="2075"/>
        <path fill="rgb(0,93,159)" stroke="none" d="M 4047,919 L 4006,919 4006,1258 3852,1258 3852,467 4006,467 4006,816 4042,801 4260,467 4436,467 4206,798 4145,841 4208,885 4471,1258 4281,1258 4047,919 Z M 4047,919 L 4047,919 Z M 3137,467 L 3137,2474 3092,2474 3092,467 3137,467 Z M 3137,467 L 3137,467 Z M 696,467 L 2380,467 2400,467 2402,467 2402,469 2402,489 2402,1814 2402,1820 2402,1820 2402,1820 2402,1822 2402,1822 2402,1826 2402,1826 2402,1834 2402,1836 2402,1836 C 2399,1916 2375,1999 2333,2079 2289,2160 2227,2237 2151,2304 2071,2375 1975,2435 1869,2477 1770,2515 1663,2538 1550,2540 L 1538,2540 1538,2540 C 1426,2540 1319,2520 1221,2484 1117,2447 1022,2392 942,2325 861,2258 795,2179 749,2094 704,2011 678,1924 674,1836 L 674,1836 674,1834 674,1816 674,1814 674,489 674,469 674,467 676,467 696,467 Z M 696,467 L 696,467 Z M 1297,2293 L 1322,2293 1322,2223 1324,2210 1316,2221 1300,2232 1290,2218 1331,2186 1344,2186 1344,2293 1368,2293 1368,2312 1297,2312 1297,2293 Z M 1297,2293 L 1297,2293 Z M 1426,2282 C 1426,2278 1427,2274 1428,2271 1429,2267 1430,2265 1432,2262 1434,2259 1436,2257 1439,2255 1442,2253 1445,2251 1448,2249 1442,2245 1437,2241 1434,2236 1431,2231 1429,2225 1429,2218 1429,2214 1430,2209 1432,2205 1433,2201 1436,2198 1439,2195 1442,2192 1446,2190 1451,2188 1455,2186 1461,2185 1466,2185 1472,2185 1477,2186 1481,2188 1485,2189 1489,2191 1492,2194 1495,2196 1498,2199 1500,2203 1501,2207 1502,2211 1502,2215 1502,2222 1501,2228 1498,2233 1494,2238 1490,2242 1484,2247 1491,2251 1496,2255 1500,2260 1503,2265 1505,2272 1505,2279 1505,2285 1504,2290 1502,2294 1500,2298 1498,2302 1494,2305 1490,2308 1486,2310 1481,2312 1476,2314 1471,2315 1465,2315 1459,2315 1454,2314 1449,2312 1444,2311 1440,2309 1437,2306 1433,2303 1431,2299 1429,2295 1427,2291 1426,2287 1426,2282 Z M 1426,2282 L 1426,2282 Z M 1483,2280 C 1483,2277 1483,2274 1481,2272 1480,2270 1478,2268 1476,2266 1474,2264 1472,2262 1469,2261 1467,2259 1464,2258 1462,2256 1456,2260 1452,2263 1450,2267 1448,2271 1447,2274 1447,2278 1447,2283 1449,2287 1452,2290 1455,2294 1460,2295 1465,2295 1471,2295 1475,2294 1478,2291 1482,2289 1483,2285 1483,2280 Z M 1483,2280 L 1483,2280 Z M 1451,2219 C 1451,2221 1452,2224 1453,2226 1454,2228 1455,2230 1457,2232 1459,2233 1461,2235 1463,2236 1466,2237 1468,2239 1470,2240 1478,2234 1481,2227 1481,2220 1481,2215 1480,2211 1477,2209 1474,2206 1470,2205 1466,2205 1461,2205 1457,2206 1455,2209 1452,2212 1451,2215 1451,2219 Z M 1451,2219 L 1451,2219 Z M 1558,2250 C 1558,2228 1562,2212 1570,2201 1577,2191 1588,2185 1602,2185 1617,2185 1628,2191 1635,2201 1642,2212 1645,2228 1645,2250 1645,2272 1641,2288 1634,2299 1626,2309 1616,2315 1602,2315 1587,2315 1576,2309 1569,2298 1562,2287 1558,2271 1558,2250 Z M 1558,2250 L 1558,2250 Z M 1581,2250 C 1581,2264 1583,2276 1586,2283 1589,2291 1595,2295 1602,2295 1609,2295 1614,2292 1617,2284 1620,2277 1622,2266 1622,2250 1622,2236 1620,2224 1617,2217 1614,2209 1609,2205 1602,2205 1594,2205 1589,2209 1586,2216 1583,2223 1581,2235 1581,2250 Z M 1581,2250 L 1581,2250 Z M 1786,2278 L 1766,2278 1766,2312 1745,2312 1745,2278 1691,2278 1691,2264 1747,2187 1766,2187 1766,2259 1786,2259 1786,2278 Z M 1786,2278 L 1786,2278 Z M 1745,2232 L 1746,2217 1746,2217 1739,2230 1721,2254 1712,2261 1723,2259 1745,2259 1745,2232 Z M 1745,2232 L 1745,2232 Z M 1277,977 C 1225,947 1203,991 1151,1002 1094,1014 1079,968 1055,928 1095,937 1097,956 1149,920 1188,894 1237,911 1265,943 L 1234,858 C 1328,857 1435,845 1528,858 L 1540,860 C 1640,880 1715,965 1715,1074 1715,1153 1670,1241 1603,1288 L 1603,1298 C 1692,1278 1793,1203 1802,1162 1789,1157 1758,1139 1759,1137 1724,1112 1709,1062 1717,1025 1725,987 1743,968 1768,953 1785,944 1801,939 1819,937 L 2286,871 C 2288,887 2290,903 2290,919 2304,1205 2083,1448 1798,1461 1700,1466 1575,1412 1530,1319 1528,1320 1526,1320 1523,1321 1506,1322 1491,1325 1476,1329 1461,1391 1588,1439 1735,1463 L 1712,1497 C 1739,1488 1769,1484 1800,1484 1961,1484 2093,1615 2093,1776 2093,1938 1961,2070 1800,2070 1638,2070 1507,1938 1507,1776 1507,1760 1508,1744 1511,1728 L 1521,1729 1698,1741 C 1689,1756 1684,1773 1684,1791 1684,1843 1727,1886 1779,1886 1832,1886 1874,1843 1874,1791 1874,1739 1833,1697 1782,1696 L 1781,1695 1770,1696 C 1769,1696 1768,1696 1766,1697 L 1614,1715 C 1547,1726 1489,1730 1440,1728 L 1229,2017 1202,1947 C 1053,1934 1105,2003 1138,2032 1141,2035 1141,2047 1138,2049 1083,2045 1035,2000 1035,1943 1035,1885 1083,1836 1142,1836 1181,1836 1215,1858 1234,1889 L 1329,1587 1314,1587 1256,1670 C 1222,1634 1195,1591 1179,1544 L 1017,1343 C 1010,1358 999,1372 986,1382 L 954,1297 C 882,1293 838,1310 875,1365 L 891,1365 889,1338 934,1338 926,1432 927,1433 926,1433 926,1435 895,1435 895,1428 893,1398 C 852,1384 813,1351 813,1300 813,1260 840,1220 878,1203 L 858,926 807,862 892,862 C 889,827 900,788 921,757 902,761 885,771 868,799 857,738 907,660 977,672 1046,684 1040,663 1076,636 1074,659 1073,681 1068,701 1140,709 1137,683 1183,648 1175,719 1182,791 1095,812 1015,830 956,784 901,862 L 911,862 1015,862 965,925 944,1196 C 961,1200 977,1209 990,1220 L 1119,1298 1148,1403 1161,1403 C 1174,1227 1319,1088 1497,1083 L 1490,1066 1311,1066 1277,977 Z M 1277,977 L 1277,977 Z M 1269,948 C 1275,956 1280,964 1283,972 1359,987 1501,1075 1454,948 L 1269,948 Z M 1269,948 L 1269,948 Z M 1394,694 L 1440,694 1440,705 1455,705 1455,741 C 1445,744 1439,754 1439,764 1439,776 1446,785 1456,789 L 1457,789 1457,789 1457,789 1457,789 1457,789 1458,789 1458,789 1458,789 1458,789 1458,789 1458,789 1458,789 1459,789 1459,789 1459,789 1459,789 1459,789 1459,790 1459,790 1460,790 1460,790 1460,790 1460,790 1460,790 1460,790 1461,790 1461,790 1461,790 1461,790 1461,790 1461,790 1461,790 1461,790 1461,790 1462,790 1462,790 1462,790 1462,790 1462,790 1463,790 1463,790 1463,790 1463,790 1463,790 1464,790 1464,790 1464,790 1464,790 1464,790 1464,790 C 1479,790 1490,779 1490,764 L 1490,764 1490,764 1490,763 1490,763 C 1490,762 1490,762 1490,762 L 1490,762 1490,761 1490,761 1490,761 C 1490,760 1490,760 1490,759 L 1490,759 1490,759 1490,759 1489,758 1489,757 1489,757 1489,757 1489,757 1489,756 C 1488,753 1485,749 1483,746 L 1483,746 1482,746 1482,746 1482,746 1482,745 1482,745 1481,745 1481,745 1481,745 1481,744 1481,744 1480,744 1480,744 1480,744 1479,743 1479,743 1479,743 1479,743 1479,743 1478,743 1478,743 1478,743 C 1478,742 1478,742 1477,742 L 1477,742 1476,741 1476,741 1476,741 1476,741 1475,741 1475,734 C 1475,713 1494,685 1515,685 L 1554,684 1498,831 1338,831 1282,684 1319,685 C 1340,685 1359,713 1359,734 L 1359,741 C 1354,743 1349,748 1347,753 L 1347,753 1346,753 1346,753 1346,754 1346,754 1346,754 1346,754 1346,755 1346,755 1346,755 1345,755 1345,755 1345,756 1345,756 1345,756 C 1345,757 1345,758 1344,759 L 1344,759 C 1344,760 1344,761 1344,762 L 1344,762 1344,763 1344,763 1344,763 1344,764 1344,764 1344,764 C 1344,779 1355,790 1370,790 L 1370,790 1370,790 1370,790 1370,790 1370,790 1371,790 1371,790 1371,790 1371,790 1371,790 1372,790 1372,790 1372,790 1372,790 1372,790 1373,790 1373,790 1373,790 1373,790 1373,790 1373,790 1373,790 1374,790 1374,790 1374,790 1374,790 1374,790 1374,790 1374,790 1374,790 1375,790 1375,790 1375,789 1375,789 1375,789 1375,789 1376,789 1376,789 C 1387,786 1395,776 1395,764 1395,754 1389,744 1379,741 L 1379,705 1394,705 1394,694 Z M 1394,694 L 1394,694 Z M 2038,1581 C 2162,1531 2277,1447 2303,1238 2279,1341 2225,1398 2158,1430 2086,1463 1999,1468 1915,1469 1972,1493 2010,1529 2038,1581 Z M 2038,1581 L 2038,1581 Z M 2358,511 L 718,511 718,1791 718,1791 718,1794 718,1808 718,1814 718,1814 718,1816 C 718,1900 742,1985 785,2066 828,2148 892,2225 970,2291 1046,2354 1137,2406 1236,2442 1330,2476 1431,2495 1538,2495 L 1538,2495 1550,2495 C 1657,2494 1759,2472 1853,2435 1954,2395 2045,2338 2121,2271 2195,2206 2255,2131 2295,2054 2335,1977 2358,1897 2358,1822 2358,1818 2358,1818 2358,1817 L 2358,1817 2358,1816 2358,1816 2358,1816 2358,1816 2358,1814 2358,1810 2358,1810 2357,1794 2357,1791 2358,1791 2358,511 Z M 2358,511 L 2358,511 Z M 4248,1782 L 4326,1782 4326,2235 C 4326,2276 4321,2311 4310,2341 4299,2370 4284,2395 4264,2414 4245,2433 4221,2447 4193,2456 4166,2465 4135,2469 4101,2469 4021,2469 3961,2451 3920,2415 3880,2379 3859,2324 3859,2251 L 3859,1782 3940,1782 3940,2213 C 3940,2247 3943,2276 3950,2299 3957,2323 3967,2342 3980,2357 3994,2371 4011,2381 4031,2388 4052,2394 4075,2398 4102,2398 4155,2398 4192,2383 4215,2355 4237,2326 4248,2279 4248,2213 L 4248,1782 Z M 4248,1782 L 4248,1782 Z M 4815,2016 L 4763,1919 4759,1919 4769,2016 4769,2461 4693,2461 4693,1772 4736,1772 5060,2224 5111,2317 5115,2317 5105,2224 5105,1782 5180,1782 5180,2471 5138,2471 4815,2016 Z M 4815,2016 L 4815,2016 Z M 5566,1782 L 5646,1782 5646,2461 5566,2461 5566,1782 Z M 5566,1782 L 5566,1782 Z M 6210,2249 L 6233,2351 6234,2351 6259,2247 6422,1782 6503,1782 6246,2471 6211,2471 5949,1782 6037,1782 6210,2249 Z M 6210,2249 L 6210,2249 Z M 6786,1782 L 7155,1782 7155,1854 6866,1854 6866,2076 7131,2076 7131,2148 6866,2148 6866,2389 7160,2389 7160,2461 6786,2461 6786,1782 Z M 6786,1782 L 6786,1782 Z M 7508,1789 C 7532,1784 7561,1781 7593,1778 7625,1776 7654,1774 7680,1774 7710,1774 7738,1778 7765,1784 7792,1791 7815,1801 7835,1816 7856,1831 7872,1850 7884,1874 7897,1898 7903,1927 7903,1961 7903,2014 7888,2058 7859,2091 7830,2124 7793,2146 7749,2157 L 7795,2192 7964,2461 7870,2461 7683,2168 7588,2154 7588,2461 7508,2461 7508,1789 Z M 7508,1789 L 7508,1789 Z M 7682,1844 C 7674,1844 7665,1844 7656,1844 7647,1844 7638,1844 7630,1845 7621,1846 7614,1846 7606,1847 7599,1848 7593,1849 7588,1850 L 7588,2101 7664,2101 C 7708,2101 7745,2090 7774,2068 7803,2046 7818,2011 7818,1964 7818,1929 7806,1901 7782,1878 7758,1855 7725,1844 7682,1844 Z M 7682,1844 L 7682,1844 Z M 8593,2288 C 8593,2261 8585,2239 8568,2222 8552,2205 8532,2190 8508,2177 8484,2163 8457,2151 8429,2139 8401,2128 8374,2114 8350,2097 8326,2081 8306,2060 8290,2036 8274,2011 8265,1980 8265,1943 8265,1890 8284,1848 8321,1817 8357,1786 8410,1771 8477,1771 8517,1771 8553,1773 8585,1779 8617,1785 8642,1792 8660,1802 L 8636,1872 C 8621,1865 8600,1858 8571,1852 8542,1845 8510,1842 8474,1842 8431,1842 8399,1852 8378,1871 8356,1890 8346,1912 8346,1938 8346,1963 8354,1984 8370,2001 8386,2018 8406,2034 8430,2047 8455,2060 8481,2073 8509,2086 8538,2099 8564,2114 8588,2131 8612,2148 8633,2169 8649,2192 8665,2216 8673,2246 8673,2281 8673,2311 8668,2337 8657,2360 8647,2383 8632,2403 8612,2420 8592,2437 8568,2450 8539,2459 8511,2468 8479,2472 8443,2472 8394,2472 8354,2468 8323,2461 8291,2454 8266,2445 8249,2436 L 8276,2364 C 8291,2372 8313,2380 8342,2388 8371,2396 8404,2401 8440,2401 8461,2401 8481,2398 8500,2394 8518,2390 8535,2383 8548,2374 8562,2365 8572,2353 8580,2339 8589,2324 8593,2308 8593,2288 Z M 8593,2288 L 8593,2288 Z M 9022,1782 L 9102,1782 9102,2461 9022,2461 9022,1782 Z M 9022,1782 L 9022,1782 Z M 9926,1854 L 9715,1854 9715,2461 9635,2461 9635,1854 9424,1854 9424,1782 9926,1782 9926,1854 Z M 9926,1854 L 9926,1854 Z M 10366,2192 L 10142,1782 10236,1782 10395,2079 10411,2138 10412,2138 10430,2077 10582,1782 10668,1782 10446,2191 10446,2461 10366,2461 10366,2192 Z M 10366,2192 L 10366,2192 Z M 4522,725 C 4552,711 4588,701 4630,693 4671,685 4714,681 4759,681 4798,681 4831,686 4858,695 4884,705 4905,718 4920,735 4936,752 4947,773 4953,797 4959,821 4963,848 4963,879 4963,912 4961,945 4959,978 4957,1013 4956,1046 4955,1078 4955,1111 4956,1142 4958,1173 4960,1203 4966,1232 4975,1259 L 4855,1259 4832,1181 4826,1181 C 4811,1204 4790,1224 4763,1241 4737,1258 4702,1267 4660,1267 4634,1267 4610,1263 4589,1255 4568,1247 4550,1236 4535,1221 4520,1206 4508,1189 4500,1169 4491,1149 4487,1127 4487,1102 4487,1067 4495,1038 4510,1014 4526,991 4548,971 4577,956 4606,941 4641,931 4681,925 4721,920 4766,918 4816,920 4821,878 4818,848 4807,829 4795,811 4770,802 4731,802 4702,802 4671,805 4638,811 4605,817 4578,825 4557,835 L 4522,725 Z M 4522,725 L 4522,725 Z M 4709,1146 C 4738,1146 4761,1139 4779,1126 4796,1113 4809,1099 4817,1084 L 4817,1011 C 4794,1008 4771,1008 4750,1009 4728,1011 4709,1014 4693,1020 4676,1025 4663,1032 4653,1042 4643,1052 4639,1064 4639,1079 4639,1100 4645,1117 4657,1129 4670,1140 4687,1146 4709,1146 Z M 4709,1146 L 4709,1146 Z M 5056,1134 L 5279,865 5336,816 5056,816 5056,692 5499,692 5499,816 5279,1090 5222,1134 5499,1134 5499,1258 5056,1258 5056,1134 Z M 5056,1134 L 5056,1134 Z M 5599,725 C 5629,711 5665,701 5708,693 5749,685 5792,681 5837,681 5876,681 5909,686 5936,695 5962,705 5983,718 5998,735 6014,752 6025,773 6031,797 6037,821 6041,848 6041,879 6041,912 6039,945 6037,978 6035,1013 6034,1046 6033,1078 6033,1111 6034,1142 6036,1173 6038,1203 6044,1232 6053,1259 L 5933,1259 5910,1181 5904,1181 C 5889,1204 5868,1224 5841,1241 5815,1258 5780,1267 5738,1267 5712,1267 5688,1263 5666,1255 5645,1247 5627,1236 5612,1221 5597,1206 5585,1189 5577,1169 5568,1149 5564,1127 5564,1102 5564,1067 5572,1038 5587,1014 5603,991 5625,971 5654,956 5684,941 5719,931 5759,925 5799,920 5844,918 5894,920 5899,878 5896,848 5885,829 5873,811 5848,802 5809,802 5780,802 5749,805 5716,811 5683,817 5655,825 5634,835 L 5599,725 Z M 5599,725 L 5599,725 Z M 5787,1146 C 5816,1146 5839,1139 5857,1126 5874,1113 5887,1099 5895,1084 L 5895,1011 C 5872,1008 5849,1008 5828,1009 5806,1011 5787,1014 5771,1020 5754,1025 5741,1032 5731,1042 5721,1052 5717,1064 5717,1079 5717,1100 5723,1117 5735,1129 5748,1140 5765,1146 5787,1146 Z M 5787,1146 L 5787,1146 Z M 6509,1258 L 6509,936 C 6509,890 6502,857 6489,837 6476,816 6454,806 6422,806 6394,806 6371,814 6352,831 6332,847 6319,867 6310,891 L 6310,1258 6164,1258 6164,692 6280,692 6297,767 6301,767 C 6319,743 6342,722 6370,704 6399,686 6436,676 6481,676 6509,676 6534,680 6555,688 6577,695 6596,708 6611,725 6626,742 6637,766 6645,796 6652,825 6656,862 6656,906 L 6656,1258 6509,1258 Z M 6509,1258 L 6509,1258 Z M 7068,467 L 7536,467 7536,604 7223,604 7223,800 7512,800 7512,937 7223,937 7223,1258 7068,1258 7068,467 Z M 7068,467 L 7068,467 Z M 8090,1209 C 8067,1227 8036,1243 7998,1255 7959,1267 7918,1274 7874,1274 7783,1274 7716,1247 7674,1194 7632,1141 7611,1068 7611,975 7611,875 7635,801 7682,751 7729,701 7796,676 7882,676 7910,676 7938,680 7965,688 7992,695 8017,708 8038,725 8059,742 8076,766 8088,795 8101,824 8108,861 8108,905 8108,920 8107,937 8105,955 8103,973 8100,993 8096,1013 L 7758,1013 C 7760,1060 7772,1096 7794,1120 7817,1144 7852,1156 7902,1156 7933,1156 7961,1151 7985,1142 8010,1133 8028,1123 8041,1113 L 8090,1209 Z M 8090,1209 L 8090,1209 Z M 7880,794 C 7841,794 7813,805 7794,828 7776,851 7765,882 7761,920 L 7971,920 C 7974,880 7968,848 7952,827 7937,805 7913,794 7880,794 Z M 7880,794 L 7880,794 Z M 8691,1059 C 8691,1091 8692,1122 8692,1154 8693,1186 8697,1221 8703,1259 L 8598,1259 8577,1186 8573,1186 C 8558,1212 8536,1233 8508,1249 8480,1265 8446,1274 8408,1274 8337,1274 8282,1250 8243,1204 8204,1157 8184,1084 8184,984 8184,887 8206,812 8250,759 8294,705 8357,679 8442,679 8465,679 8484,680 8499,683 8514,685 8529,690 8545,696 L 8545,467 8691,467 8691,1059 Z M 8691,1059 L 8691,1059 Z M 8442,1149 C 8470,1149 8493,1142 8510,1129 8526,1115 8538,1094 8545,1068 L 8545,828 C 8534,819 8522,813 8510,809 8497,805 8480,803 8460,803 8418,803 8387,817 8367,845 8346,873 8336,920 8336,989 8336,1037 8344,1076 8361,1105 8378,1135 8405,1149 8442,1149 Z M 8442,1149 L 8442,1149 Z M 9272,1209 C 9249,1227 9218,1243 9180,1255 9141,1267 9100,1274 9056,1274 8965,1274 8898,1247 8856,1194 8814,1141 8793,1068 8793,975 8793,875 8817,801 8864,751 8911,701 8978,676 9064,676 9092,676 9120,680 9147,688 9174,695 9199,708 9220,725 9241,742 9258,766 9270,795 9283,824 9290,861 9290,905 9290,920 9289,937 9287,955 9285,973 9282,993 9278,1013 L 8940,1013 C 8942,1060 8954,1096 8976,1120 8999,1144 9034,1156 9084,1156 9115,1156 9143,1151 9167,1142 9192,1133 9210,1123 9223,1113 L 9272,1209 Z M 9272,1209 L 9272,1209 Z M 9062,794 C 9023,794 8995,805 8976,828 8958,851 8947,882 8943,920 L 9153,920 C 9156,880 9150,848 9134,827 9119,805 9095,794 9062,794 Z M 9062,794 L 9062,794 Z M 9705,830 C 9682,822 9661,818 9642,818 9616,818 9593,825 9576,838 9558,852 9546,870 9540,892 L 9540,1258 9393,1258 9393,692 9508,692 9524,767 9529,767 C 9542,739 9559,717 9581,702 9603,687 9628,680 9658,680 9677,680 9699,684 9724,692 L 9705,830 Z M 9705,830 L 9705,830 Z M 9786,725 C 9816,711 9852,701 9894,693 9935,685 9978,681 10023,681 10063,681 10095,686 10122,695 10148,705 10169,718 10184,735 10200,752 10211,773 10217,797 10223,821 10227,848 10227,879 10227,912 10226,945 10223,978 10221,1013 10220,1046 10219,1078 10219,1111 10220,1142 10222,1173 10224,1203 10230,1232 10239,1259 L 10119,1259 10096,1181 10090,1181 C 10075,1204 10054,1224 10027,1241 10001,1258 9966,1267 9924,1267 9898,1267 9874,1263 9853,1255 9832,1247 9814,1236 9799,1221 9784,1206 9772,1189 9764,1169 9756,1149 9751,1127 9751,1102 9751,1067 9759,1038 9775,1014 9790,991 9812,971 9841,956 9870,941 9905,931 9945,925 9985,920 10030,918 10080,920 10085,878 10082,848 10071,829 10060,811 10034,802 9995,802 9966,802 9935,805 9902,811 9869,817 9842,825 9821,835 L 9786,725 Z M 9786,725 L 9786,725 Z M 9973,1146 C 10002,1146 10025,1139 10043,1126 10060,1113 10073,1099 10081,1084 L 10081,1011 C 10058,1008 10035,1008 10014,1009 9992,1011 9973,1014 9957,1020 9940,1025 9927,1032 9917,1042 9908,1052 9903,1064 9903,1079 9903,1100 9909,1117 9921,1129 9934,1140 9951,1146 9973,1146 Z M 9973,1146 L 9973,1146 Z M 10501,1068 C 10501,1094 10504,1114 10511,1126 10518,1138 10529,1144 10544,1144 10553,1144 10562,1143 10570,1141 10579,1140 10590,1137 10603,1131 L 10618,1246 C 10606,1252 10588,1259 10563,1265 10538,1271 10513,1274 10486,1274 10443,1274 10411,1264 10388,1244 10365,1224 10354,1191 10354,1145 L 10354,467 10501,467 10501,1068 Z"/>
       </g>
      </g>
     </g>
    </g>
   </g>
  </g>
 </g>
</svg>